<svg width="1366" height="240" viewBox="0 0 1366 240" fill="none" xmlns="http://www.w3.org/2000/svg">
<path d="M-35.0972 157.275L-1.52862 154.707C32.0399 151.945 98.9813 147.101 166.51 154.707C233.353 162.604 300.588 182.953 367.138 185.714C434.667 188.282 502.195 172.778 568.745 170.211C635.98 167.449 702.824 178.108 770.352 175.346C837.294 172.778 904.431 157.275 971.959 152.091C1038.61 147.101 1106.04 151.945 1172.59 157.275C1240.02 162.604 1306.67 167.449 1340.92 170.211L1374.19 172.778V48.75H1340.63C1307.06 48.75 1240.12 48.75 1172.59 48.75C1105.74 48.75 1038.51 48.75 971.959 48.75C904.431 48.75 836.902 48.75 770.352 48.75C703.117 48.75 636.274 48.75 568.745 48.75C501.804 48.75 434.667 48.75 367.138 48.75C300.49 48.75 233.06 48.75 166.51 48.75C99.0791 48.75 32.4314 48.75 -1.82222 48.75H-35.0972V157.275Z" fill="#1D3DF9" fill-opacity="0.12"/>
</svg>
