<svg width="150" height="137" viewBox="0 0 150 137" fill="none" xmlns="http://www.w3.org/2000/svg">
<path d="M150 67.938C150 105.46 119.989 135.877 82.9689 135.877C45.9488 135.877 15.9365 105.46 15.9365 67.938C15.9365 30.4163 45.9488 3.05176e-05 82.9689 3.05176e-05C119.989 3.05176e-05 150 30.4163 150 67.938Z" fill="#DCFFF8"/>
<path d="M40.4999 76.9366C43.7708 78.3358 50.1177 85.785 50.1177 85.785L62.3994 90.4351L62.0144 93.5662L46.4958 91.1681C46.4958 91.1681 39.4174 85.0376 38.517 81.9069C37.6153 78.775 38.6026 76.125 40.4999 76.9366Z" fill="#ABD2ED"/>
<path d="M31.9178 105.582L47.0114 104.082L42.8928 80.6018C42.5547 78.9832 39.9084 76.4713 38.3445 76.9496L27.8826 80.0505C26.3187 80.5287 25.4934 82.2593 26.0933 83.7988L31.9178 105.582Z" fill="#D0E0F0"/>
<path d="M32.1408 79.9472L33.9641 79.3898C34.53 79.2174 34.8341 78.5536 34.6415 77.9061L33.9653 75.6285C33.7727 74.9814 33.1575 74.5979 32.5916 74.7717L30.7683 75.3277C30.2013 75.5001 29.8984 76.1653 30.0909 76.8114L30.7672 79.0899C30.9597 79.7361 31.5737 80.1205 32.1408 79.9472Z" fill="#F9A369"/>
<path d="M36.0527 73.7106C36.0667 76.4462 33.8795 76.6949 31.1804 76.7093C28.4824 76.7223 26.2834 74.5172 26.2681 71.7816C26.254 69.0456 28.4307 66.8173 31.1299 66.8015C33.8278 66.7885 36.0386 70.9747 36.0527 73.7106Z" fill="#FFB685"/>
<path d="M29.303 69.9167C29.303 69.9167 29.802 71.591 29.573 71.6602C29.3453 71.7304 28.3884 71.6444 28.001 72.6451C27.6135 73.6436 28.5387 74.2432 29.33 74.1911C30.1225 74.1377 30.1941 76.2591 28.325 76.452C26.4547 76.645 24.5763 72.6192 25.0071 70.7236C25.438 68.828 27.8108 66.1506 28.8721 65.9531C29.9311 65.7556 40.7969 66.3872 40.7969 66.3872L29.303 69.9167Z" fill="#7F4D4E"/>
<path d="M32.4637 75.6276C32.2218 74.8112 32.6786 73.9495 33.484 73.7031C34.2894 73.4568 35.1405 73.9197 35.3836 74.736C35.6254 75.5537 35.1687 76.414 34.3621 76.6613C33.5579 76.9077 32.7067 76.4447 32.4637 75.6276ZM31.6536 75.8748C32.0317 77.1457 33.3536 77.8648 34.6063 77.4827C35.8614 77.1006 36.5705 75.7605 36.1936 74.4886C35.8156 73.2188 34.4936 72.4988 33.2397 72.8822C31.9859 73.2643 31.2767 74.6054 31.6536 75.8748Z" fill="#7F4D4E"/>
<path d="M36.0539 74.1709L31.5549 75.5445C31.5549 75.5445 32.3098 82.2054 35.9013 80.8932C39.2966 79.6521 36.0539 74.1709 36.0539 74.1709Z" fill="#7F4D4E"/>
<path d="M47.0113 104.081L47.2708 134.111H44.4014C44.4014 134.111 42.2306 117.753 41.4123 108.711H39.4246L39.5549 121.58L27.9002 131.921L26.3398 129.267L34.0827 119.101C34.0827 119.101 31.8755 107.848 31.9177 105.582C31.8414 105.215 47.0113 104.081 47.0113 104.081Z" fill="#4C73DC"/>
<path d="M47.3094 134.07H44.3931V136.335H50.3079C50.6989 136.335 50.8327 135.447 50.4911 135.256L47.3094 134.07Z" fill="#09089F"/>
<path d="M27.9542 131.728L26.3399 129.267L24.479 130.521L27.7523 135.514C27.9683 135.842 28.7725 135.464 28.7408 135.069L27.9542 131.728Z" fill="#09089F"/>
<path d="M45.4415 92.1559L42.7717 84.296L43.0148 84.2119L45.6846 92.0713L45.4415 92.1559Z" fill="#EA6A47"/>
<path d="M61.512 112.781L52.6338 104.081L115.957 37.4631L124.929 45.9062L61.512 112.781Z" fill="#FF5C98"/>
<path d="M38.0486 89.6203L43.1064 76.772L66.4394 100.706L58.5533 109.782L38.0486 89.6203Z" fill="#FF5C98"/>
<path d="M100.058 23.3362L149.672 9.05806L140.186 61.0972L100.058 23.3362Z" fill="#FF5C98"/>
<path d="M107.677 64.9347C107.261 64.3017 107.076 62.5869 107.592 62.2788C108.099 61.9739 109.487 61.0195 109.944 62.1454L110.532 64.4179L108.209 65.7435L107.677 64.9347Z" fill="#F9A369"/>
<path d="M134.69 101.129H119.447L119.854 134.135H122.764C122.764 134.135 124.968 117.531 125.799 108.354H127.818L128.424 134.135H131.335C131.335 134.135 134.771 108.248 134.68 103.258C134.757 102.886 134.69 101.129 134.69 101.129Z" fill="#7EE5D4"/>
<path d="M134.69 101.129H119.447L117.545 80.6086C117.374 78.9343 118.97 77.4981 121 77.4981H133.137C135.168 77.4981 136.764 78.9343 136.594 80.6086L134.69 101.129Z" fill="#09089F"/>
<path d="M113.821 74.2362L110.647 64.3313C110.647 64.0668 107.86 65.1248 108.209 65.7434C108.772 66.7456 108.182 75.4703 111.231 78.7368C112.932 80.5598 119.838 86.6941 120.11 86.2348C120.543 85.5027 120.614 83.5788 120.696 81.045C120.715 80.4598 120.284 79.9611 119.708 79.9007L121.884 78.6619C121.386 78.6093 113.821 74.2362 113.821 74.2362Z" fill="#09089F"/>
<path d="M138.46 71.108L139.232 61.0242C139.157 60.7699 142.127 60.9898 141.964 61.6823C141.7 62.8044 144.693 71.0081 142.676 75.0121C141.552 77.247 135.146 85.5478 134.759 85.1862C134.139 84.6056 133.913 82.5683 133.13 80.1609C132.949 79.6054 133.224 77.5133 133.224 77.5133C133.688 77.3218 138.46 71.108 138.46 71.108Z" fill="#09089F"/>
<path d="M119.814 134.092H122.773V136.394H116.771C116.374 136.394 116.238 135.491 116.585 135.298L119.814 134.092Z" fill="#0F2337"/>
<path d="M128.511 134.092H131.471V136.394H125.468C125.073 136.394 124.936 135.491 125.283 135.298L128.511 134.092Z" fill="#0F2337"/>
<path d="M134.69 101.129H119.447L117.545 80.6086C117.374 78.9343 118.97 77.4981 121 77.4981H133.137C135.168 77.4981 136.764 78.9343 136.594 80.6086L134.69 101.129Z" fill="#09089F"/>
<path d="M126.996 79.671C129.696 79.671 129.68 77.8099 129.68 77.3623V74.3353C129.68 73.6483 128.671 73.7069 128.07 73.7069H126.136C125.536 73.7069 124.527 74.2624 124.527 74.9494V77.3623C124.527 77.8048 124.811 79.671 126.996 79.671Z" fill="#F9A369"/>
<path d="M122.848 73.7033C123.625 76.3663 125.822 75.9596 128.448 75.1717C131.076 74.3838 132.576 71.5888 131.8 68.9258C131.024 66.2629 128.264 64.7419 125.637 65.5285C123.009 66.3149 122.072 71.0413 122.848 73.7033Z" fill="#FFB685"/>
<path d="M128.312 68.0128C128.312 68.0128 128.312 69.7883 128.552 69.7883C128.794 69.7883 129.701 69.4216 130.365 70.2788C131.03 71.1355 130.304 71.9931 129.519 72.1767C128.733 72.3598 129.278 74.4408 131.151 74.0745C133.023 73.7068 133.688 69.2376 132.721 67.5237C131.755 65.809 128.675 63.9126 127.587 64.0339C126.499 64.1561 119.33 68.069 119.33 68.069L128.312 68.0128Z" fill="#F8D188"/>
<path d="M9.46049 132.517L0 123.847L43.1064 76.772L51.7251 85.679L9.46049 132.517Z" fill="#FF5C98"/>
<path d="M28.3487 80.4716C30.4385 79.7865 38.2589 90.7766 38.2589 90.7766L52.169 92.4769L51.7828 95.608L34.7849 96.6469C34.7849 96.6469 28.8242 89.9665 27.9226 86.8345C27.0221 83.7035 26.3892 81.113 28.3487 80.4716Z" fill="#ABD2ED"/>
<path d="M51.6722 92.3092L51.2495 95.6602C51.2495 95.6602 54.8726 95.0712 55.2589 94.2229C55.644 93.3756 55.0018 92.9842 55.0018 92.9842L51.6722 92.3092Z" fill="#FF8860"/>
<path d="M62.3267 90.3593L62.0144 93.5662C62.0144 93.5662 65.6399 93.4579 66.025 92.6091C66.4112 91.7622 65.6563 91.0351 65.6563 91.0351L62.3267 90.3593Z" fill="#FF8860"/>
<path d="M42.0204 52.0428H31.427V42.6933H42.0204V52.0428Z" fill="#8CB3DE"/>
<path d="M52.5281 52.0428H41.9358V35.4187H52.5281V52.0428Z" fill="#4C73DC"/>
<path d="M63.0346 52.0428H52.4424V27.7413H63.0346V52.0428Z" fill="#7EE5D4"/>
<path d="M73.5436 52.0428H62.9502V20.2673H73.5436V52.0428Z" fill="#09089F"/>
<path d="M84.0515 52.0428H73.458V12.7349H84.0515V52.0428Z" fill="#FF5C98"/>
</svg>
