<svg width="676" height="828" viewBox="0 0 676 828" fill="none" xmlns="http://www.w3.org/2000/svg">
<g id="side background">
<mask id="path-1-inside-1" fill="white">
<path d="M59.5163 233.5C592.016 -92 294.516 -48.3333 382.516 -110L730.516 -69.5C1008.92 -37.1 878.85 426.667 779.016 654.5C768.183 652.333 715.616 669.6 592.016 756C468.416 842.4 345.516 832.667 299.516 817C193.683 794.667 38.3163 807.8 59.5163 697C86.0163 558.5 -84.7849 321.707 59.5163 233.5Z"/>
</mask>
<path d="M59.5163 233.5C592.016 -92 294.516 -48.3333 382.516 -110L730.516 -69.5C1008.92 -37.1 878.85 426.667 779.016 654.5C768.183 652.333 715.616 669.6 592.016 756C468.416 842.4 345.516 832.667 299.516 817C193.683 794.667 38.3163 807.8 59.5163 697C86.0163 558.5 -84.7849 321.707 59.5163 233.5Z" stroke="#CBFEEF" stroke-width="812" mask="url(#path-1-inside-1)"/>
</g>
</svg>
