<svg width="132" height="147" viewBox="0 0 132 147" fill="none" xmlns="http://www.w3.org/2000/svg">
<path d="M81.4249 118.81C81.4249 120.424 80.1876 121.732 78.6613 121.732H2.76409C1.23781 121.732 0 120.424 0 118.81V17.1344C0 15.5208 1.23781 14.2126 2.76409 14.2126H78.6613C80.1876 14.2126 81.4249 15.5208 81.4249 17.1344V118.81Z" fill="#3EBCED"/>
<path d="M49.3194 117.271H7.68384V115.666H49.3194V117.271ZM77.2102 33.5666H75.476V21.8831H77.2102V33.5666Z" fill="#2A9CCB"/>
<path d="M5.94873 115.666H75.476V20.2787H5.94873V115.666Z" fill="#D0EEFB"/>
<path d="M47.3782 8.36512H34.0464V2.34812H47.3782V8.36512ZM50.7708 7.69956V7.62939e-05H30.6547V7.69956L21.2563 11.115V23.8345H40.7125H60.1683V11.115L50.7708 7.69956Z" fill="#544EAA"/>
<path d="M60.1683 23.8345H21.2563V11.115L30.6547 7.69958L25.1579 12.2896V19.7101H60.1683V23.8345Z" fill="#3D387A"/>
<path d="M12.6387 52.2555H30.8489V32.5451H12.6387V52.2555Z" fill="white"/>
<path d="M27.0133 46.0025C26.9737 45.3456 26.3095 45.1386 26.3095 45.1386L24.2554 44.4027L23.3852 44.0594C22.7181 44.5332 21.9839 44.7087 21.7441 44.7556C21.5034 44.7087 20.7687 44.5332 20.1026 44.0594L19.2309 44.4027L17.1764 45.1386C17.1764 45.1386 16.515 45.3456 16.475 46.0025L15.8267 49.7397H21.6616H21.8252H27.6616L27.0133 46.0025Z" fill="#B9DDF5"/>
<path d="M24.8714 39.1818C24.8304 41.4248 23.3992 43.2148 21.6732 43.1802C19.9468 43.147 18.5792 41.3019 18.6188 39.0584C18.6578 36.8154 20.0895 35.0283 21.8165 35.062C23.5425 35.0957 24.911 36.9388 24.8714 39.1818Z" fill="#B9DDF5"/>
<path d="M12.6387 77.828H30.8489V58.1172H12.6387V77.828Z" fill="white"/>
<path d="M27.0133 71.5748C26.9737 70.9179 26.3095 70.7108 26.3095 70.7108L24.2554 69.9749L23.3852 69.6316C22.7181 70.1049 21.9839 70.2804 21.7441 70.3278C21.5034 70.2804 20.7687 70.1049 20.1026 69.6316L19.2309 69.9749L17.1764 70.7108C17.1764 70.7108 16.515 70.9179 16.475 71.5748L15.8267 75.3116H21.6616H21.8252H27.6616L27.0133 71.5748Z" fill="#B9DDF5"/>
<path d="M24.8714 64.7546C24.8304 66.9965 23.3992 68.7866 21.6732 68.7524C19.9468 68.7188 18.5792 66.8741 18.6188 64.6306C18.6578 62.3877 20.0895 60.6001 21.8165 60.6343C23.5425 60.6679 24.911 62.5111 24.8714 64.7546Z" fill="#B9DDF5"/>
<path d="M30.8489 103.4H12.6387V83.6894H30.8489V103.4Z" fill="white"/>
<path d="M27.0133 97.1472C26.9737 96.4903 26.3095 96.2827 26.3095 96.2827L24.2554 95.5468L23.3852 95.2041C22.7181 95.6769 21.9839 95.8528 21.7441 95.9002C21.5034 95.8528 20.7687 95.6769 20.1026 95.2041L19.2309 95.5468L17.1764 96.2827C17.1764 96.2827 16.515 96.4903 16.475 97.1472L15.8267 100.884H21.6616H21.8252H27.6616L27.0133 97.1472Z" fill="#B9DDF5"/>
<path d="M24.8714 90.3264C24.8304 92.5689 23.3992 94.359 21.6732 94.3248C19.9468 94.2912 18.5792 92.446 18.6188 90.2025C18.6578 87.9595 20.0895 86.1724 21.8165 86.2066C23.5425 86.2402 24.911 88.0829 24.8714 90.3264Z" fill="#B9DDF5"/>
<path d="M68.7863 35.3522C68.7863 35.7653 68.4699 36.0994 68.0791 36.0994H35.0238C34.6326 36.0994 34.3167 35.7653 34.3167 35.3522C34.3167 34.9401 34.6326 34.6056 35.0238 34.6056H68.0791C68.4699 34.6056 68.7863 34.9401 68.7863 35.3522Z" fill="#A8DCF6"/>
<path d="M68.7863 40.0513C68.7863 40.4639 68.4699 40.798 68.0791 40.798H35.0238C34.6326 40.798 34.3167 40.4639 34.3167 40.0513C34.3167 39.6382 34.6326 39.3042 35.0238 39.3042H68.0791C68.4699 39.3042 68.7863 39.6382 68.7863 40.0513Z" fill="#A8DCF6"/>
<path d="M68.7863 44.7495C68.7863 45.1621 68.4699 45.4967 68.0791 45.4967H35.0238C34.6326 45.4967 34.3167 45.1621 34.3167 44.7495C34.3167 44.3375 34.6326 44.0029 35.0238 44.0029H68.0791C68.4699 44.0029 68.7863 44.3375 68.7863 44.7495Z" fill="#A8DCF6"/>
<path d="M68.7863 49.4481C68.7863 49.8607 68.4699 50.1953 68.0791 50.1953H35.0238C34.6326 50.1953 34.3167 49.8607 34.3167 49.4481C34.3167 49.036 34.6326 48.7014 35.0238 48.7014H68.0791C68.4699 48.7014 68.7863 49.036 68.7863 49.4481Z" fill="#A8DCF6"/>
<path d="M68.7863 60.9245C68.7863 61.3371 68.4699 61.6716 68.0791 61.6716H35.0238C34.6326 61.6716 34.3167 61.3371 34.3167 60.9245C34.3167 60.5125 34.6326 60.1779 35.0238 60.1779H68.0791C68.4699 60.1779 68.7863 60.5125 68.7863 60.9245Z" fill="#A8DCF6"/>
<path d="M68.7863 65.623C68.7863 66.0356 68.4699 66.3701 68.0791 66.3701H35.0238C34.6326 66.3701 34.3167 66.0356 34.3167 65.623C34.3167 65.2104 34.6326 64.8764 35.0238 64.8764H68.0791C68.4699 64.8764 68.7863 65.2104 68.7863 65.623Z" fill="#A8DCF6"/>
<path d="M68.7863 70.3219C68.7863 70.7345 68.4699 71.0691 68.0791 71.0691H35.0238C34.6326 71.0691 34.3167 70.7345 34.3167 70.3219C34.3167 69.9093 34.6326 69.5752 35.0238 69.5752H68.0791C68.4699 69.5752 68.7863 69.9093 68.7863 70.3219Z" fill="#A8DCF6"/>
<path d="M68.7863 75.02C68.7863 75.4331 68.4699 75.7677 68.0791 75.7677H35.0238C34.6326 75.7677 34.3167 75.4331 34.3167 75.02C34.3167 74.6079 34.6326 74.2738 35.0238 74.2738H68.0791C68.4699 74.2738 68.7863 74.6079 68.7863 75.02Z" fill="#A8DCF6"/>
<path d="M68.7863 86.4968C68.7863 86.9094 68.4699 87.2439 68.0791 87.2439H35.0238C34.6326 87.2439 34.3167 86.9094 34.3167 86.4968C34.3167 86.0842 34.6326 85.7492 35.0238 85.7492H68.0791C68.4699 85.7492 68.7863 86.0842 68.7863 86.4968Z" fill="#A8DCF6"/>
<path d="M68.7863 91.1955C68.7863 91.6081 68.4699 91.9426 68.0791 91.9426H35.0238C34.6326 91.9426 34.3167 91.6081 34.3167 91.1955C34.3167 90.7834 34.6326 90.4483 35.0238 90.4483H68.0791C68.4699 90.4483 68.7863 90.7834 68.7863 91.1955Z" fill="#A8DCF6"/>
<path d="M68.7863 95.8941C68.7863 96.3067 68.4699 96.6407 68.0791 96.6407H35.0238C34.6326 96.6407 34.3167 96.3067 34.3167 95.8941C34.3167 95.4815 34.6326 95.1469 35.0238 95.1469H68.0791C68.4699 95.1469 68.7863 95.4815 68.7863 95.8941Z" fill="#A8DCF6"/>
<path d="M68.7863 100.593C68.7863 101.005 68.4699 101.339 68.0791 101.339H35.0238C34.6326 101.339 34.3167 101.005 34.3167 100.593C34.3167 100.18 34.6326 99.8461 35.0238 99.8461H68.0791C68.4699 99.8461 68.7863 100.18 68.7863 100.593Z" fill="#A8DCF6"/>
<path d="M132 147H49.3193V121.732H78.6611C80.1874 121.732 81.4247 120.424 81.4247 118.81V33.5667H132V147Z" fill="#3D3B99"/>
<path d="M78.6611 121.732H49.3193V117.271H77.2101V33.5666H81.4247V118.81C81.4247 120.424 80.1874 121.732 78.6611 121.732Z" fill="#314FA3"/>
<path d="M77.2101 117.271H49.3193V115.666H75.4759V33.5667H77.2101V117.271Z" fill="#26438B"/>
<path d="M75.4759 115.666H49.3193V101.339H68.079C68.4697 101.339 68.7861 101.005 68.7861 100.593C68.7861 100.18 68.4697 99.8461 68.079 99.8461H49.3193V96.6408H68.079C68.4697 96.6408 68.7861 96.3067 68.7861 95.8941C68.7861 95.4815 68.4697 95.147 68.079 95.147H49.3193V91.9427H68.079C68.4697 91.9427 68.7861 91.6081 68.7861 91.1955C68.7861 90.7834 68.4697 90.4484 68.079 90.4484H49.3193V87.244H68.079C68.4697 87.244 68.7861 86.9095 68.7861 86.4969C68.7861 86.0843 68.4697 85.7492 68.079 85.7492H49.3193V75.7675H68.079C68.4697 75.7675 68.7861 75.433 68.7861 75.0199C68.7861 74.6078 68.4697 74.2738 68.079 74.2738H49.3193V71.0689H68.079C68.4697 71.0689 68.7861 70.7344 68.7861 70.3218C68.7861 69.9092 68.4697 69.5751 68.079 69.5751H49.3193V66.3703H68.079C68.4697 66.3703 68.7861 66.0357 68.7861 65.6232C68.7861 65.2106 68.4697 64.8765 68.079 64.8765H49.3193V61.6717H68.079C68.4697 61.6717 68.7861 61.3371 68.7861 60.9245C68.7861 60.5125 68.4697 60.1779 68.079 60.1779H49.3193V50.1952H68.079C68.4697 50.1952 68.7861 49.8606 68.7861 49.448C68.7861 49.036 68.4697 48.7014 68.079 48.7014H49.3193V45.4966H68.079C68.4697 45.4966 68.7861 45.162 68.7861 44.7494C68.7861 44.3373 68.4697 44.0028 68.079 44.0028H49.3193V40.798H68.079C68.4697 40.798 68.7861 40.4639 68.7861 40.0513C68.7861 39.6382 68.4697 39.3042 68.079 39.3042H49.3193V36.0993H68.079C68.4697 36.0993 68.7861 35.7653 68.7861 35.3522C68.7861 34.9401 68.4697 34.6055 68.079 34.6055H49.3193V33.5667H75.4759V115.666Z" fill="#5D4FA8"/>
<path d="M68.079 36.0994H49.3193V34.6056H68.079C68.4697 34.6056 68.7862 34.9401 68.7862 35.3522C68.7862 35.7653 68.4697 36.0994 68.079 36.0994Z" fill="#514EA7"/>
<path d="M68.079 40.798H49.3193V39.3042H68.079C68.4697 39.3042 68.7862 39.6382 68.7862 40.0513C68.7862 40.4639 68.4697 40.798 68.079 40.798Z" fill="#514EA7"/>
<path d="M68.079 45.4967H49.3193V44.0029H68.079C68.4697 44.0029 68.7862 44.3375 68.7862 44.7495C68.7862 45.1621 68.4697 45.4967 68.079 45.4967Z" fill="#514EA7"/>
<path d="M68.079 50.1953H49.3193V48.7014H68.079C68.4697 48.7014 68.7862 49.036 68.7862 49.4481C68.7862 49.8607 68.4697 50.1953 68.079 50.1953Z" fill="#514EA7"/>
<path d="M68.079 61.6716H49.3193V60.1779H68.079C68.4697 60.1779 68.7862 60.5125 68.7862 60.9245C68.7862 61.3371 68.4697 61.6716 68.079 61.6716Z" fill="#514EA7"/>
<path d="M68.079 66.3701H49.3193V64.8764H68.079C68.4697 64.8764 68.7862 65.2104 68.7862 65.623C68.7862 66.0356 68.4697 66.3701 68.079 66.3701Z" fill="#514EA7"/>
<path d="M68.079 71.0691H49.3193V69.5752H68.079C68.4697 69.5752 68.7862 69.9093 68.7862 70.3219C68.7862 70.7345 68.4697 71.0691 68.079 71.0691Z" fill="#514EA7"/>
<path d="M68.079 75.7677H49.3193V74.2738H68.079C68.4697 74.2738 68.7862 74.6079 68.7862 75.02C68.7862 75.4331 68.4697 75.7677 68.079 75.7677Z" fill="#514EA7"/>
<path d="M68.079 87.2439H49.3193V85.7492H68.079C68.4697 85.7492 68.7862 86.0842 68.7862 86.4968C68.7862 86.9094 68.4697 87.2439 68.079 87.2439Z" fill="#514EA7"/>
<path d="M68.079 91.9426H49.3193V90.4483H68.079C68.4697 90.4483 68.7862 90.7834 68.7862 91.1955C68.7862 91.6081 68.4697 91.9426 68.079 91.9426Z" fill="#514EA7"/>
<path d="M68.079 96.6407H49.3193V95.1469H68.079C68.4697 95.1469 68.7862 95.4815 68.7862 95.8941C68.7862 96.3067 68.4697 96.6407 68.079 96.6407Z" fill="#514EA7"/>
<path d="M68.079 101.339H49.3193V99.8461H68.079C68.4697 99.8461 68.7862 100.18 68.7862 100.593C68.7862 101.005 68.4697 101.339 68.079 101.339Z" fill="#514EA7"/>
<path d="M128.51 143.318H45.8298V29.8838H128.51V143.318Z" fill="#D0EEFB"/>
<path d="M75.4408 76.0205H53.7859V52.5811H75.4408V76.0205Z" fill="white"/>
<path d="M70.88 68.5841C70.8323 67.8033 70.0421 67.5565 70.0421 67.5565L67.6002 66.6813L66.5646 66.2733C65.7725 66.8369 64.8998 67.045 64.6142 67.1016C64.3272 67.045 63.4536 66.8369 62.6625 66.2733L61.6244 66.6813L59.1811 67.5565C59.1811 67.5565 58.3948 67.8033 58.347 68.5841L57.5757 73.0283H64.5158H64.7098H71.6514L70.88 68.5841Z" fill="#B9DDF5"/>
<path d="M68.3318 60.4732C68.284 63.1399 66.5821 65.2686 64.5305 65.2278C62.4761 65.188 60.8495 62.9935 60.8962 60.3258C60.9426 57.6585 62.6459 55.5334 64.6984 55.5742C66.7515 55.614 68.379 57.8059 68.3318 60.4732Z" fill="#B9DDF5"/>
<path d="M120.555 55.9188C120.555 56.41 120.179 56.8073 119.715 56.8073H80.4053C79.9398 56.8073 79.5649 56.41 79.5649 55.9188C79.5649 55.4287 79.9398 55.0309 80.4053 55.0309H119.715C120.179 55.0309 120.555 55.4287 120.555 55.9188Z" fill="#A8DCF6"/>
<path d="M120.555 61.5065C120.555 61.9976 120.179 62.3954 119.715 62.3954H80.4053C79.9398 62.3954 79.5649 61.9976 79.5649 61.5065C79.5649 61.0163 79.9398 60.6186 80.4053 60.6186H119.715C120.179 60.6186 120.555 61.0163 120.555 61.5065Z" fill="#A8DCF6"/>
<path d="M120.555 67.094C120.555 67.5851 120.179 67.9824 119.715 67.9824H80.4053C79.9398 67.9824 79.5649 67.5851 79.5649 67.094C79.5649 66.6033 79.9398 66.206 80.4053 66.206H119.715C120.179 66.206 120.555 66.6033 120.555 67.094Z" fill="#A8DCF6"/>
<path d="M120.555 72.6816C120.555 73.1722 120.179 73.5701 119.715 73.5701H80.4053C79.9398 73.5701 79.5649 73.1722 79.5649 72.6816C79.5649 72.1915 79.9398 71.7936 80.4053 71.7936H119.715C120.179 71.7936 120.555 72.1915 120.555 72.6816Z" fill="#A8DCF6"/>
<path d="M120.555 83.6261C120.555 84.1167 120.179 84.5145 119.715 84.5145H54.2051C53.742 84.5145 53.3652 84.1167 53.3652 83.6261C53.3652 83.1354 53.742 82.7381 54.2051 82.7381H119.715C120.179 82.7381 120.555 83.1354 120.555 83.6261Z" fill="#A8DCF6"/>
<path d="M120.555 89.2132C120.555 89.7043 120.179 90.1021 119.715 90.1021H54.2051C53.742 90.1021 53.3652 89.7043 53.3652 89.2132C53.3652 88.7231 53.742 88.3253 54.2051 88.3253H119.715C120.179 88.3253 120.555 88.7231 120.555 89.2132Z" fill="#A8DCF6"/>
<path d="M120.555 94.8012C120.555 95.2918 120.179 95.6896 119.715 95.6896H54.2051C53.742 95.6896 53.3652 95.2918 53.3652 94.8012C53.3652 94.3111 53.742 93.9128 54.2051 93.9128H119.715C120.179 93.9128 120.555 94.3111 120.555 94.8012Z" fill="#A8DCF6"/>
<path d="M120.555 100.389C120.555 100.879 120.179 101.277 119.715 101.277H54.2051C53.742 101.277 53.3652 100.879 53.3652 100.389C53.3652 99.8982 53.742 99.5004 54.2051 99.5004H119.715C120.179 99.5004 120.555 99.8982 120.555 100.389Z" fill="#A8DCF6"/>
<path d="M120.555 108.114C120.555 108.604 120.179 109.002 119.715 109.002H54.2051C53.742 109.002 53.3652 108.604 53.3652 108.114C53.3652 107.623 53.742 107.226 54.2051 107.226H119.715C120.179 107.226 120.555 107.623 120.555 108.114Z" fill="#A8DCF6"/>
<path d="M120.555 113.702C120.555 114.192 120.179 114.59 119.715 114.59H54.2051C53.742 114.59 53.3652 114.192 53.3652 113.702C53.3652 113.211 53.742 112.813 54.2051 112.813H119.715C120.179 112.813 120.555 113.211 120.555 113.702Z" fill="#A8DCF6"/>
<path d="M120.555 119.289C120.555 119.78 120.179 120.177 119.715 120.177H54.2051C53.742 120.177 53.3652 119.78 53.3652 119.289C53.3652 118.799 53.742 118.401 54.2051 118.401H119.715C120.179 118.401 120.555 118.799 120.555 119.289Z" fill="#A8DCF6"/>
<path d="M120.555 124.877C120.555 125.368 120.179 125.765 119.715 125.765H54.2051C53.742 125.765 53.3652 125.368 53.3652 124.877C53.3652 124.386 53.742 123.988 54.2051 123.988H119.715C120.179 123.988 120.555 124.386 120.555 124.877Z" fill="#A8DCF6"/>
<path d="M107.666 43.2342C107.666 43.7254 107.289 44.1227 106.826 44.1227H67.5161C67.0506 44.1227 66.6758 43.7254 66.6758 43.2342C66.6758 42.7441 67.0506 42.3462 67.5161 42.3462H106.826C107.289 42.3462 107.666 42.7441 107.666 43.2342Z" fill="#A8DCF6"/>
<path d="M98.5092 8.47782H97.7856C97.7852 9.07146 97.5599 9.60186 97.1928 9.99201C96.8237 10.3806 96.3221 10.6183 95.761 10.6188C95.1995 10.6183 94.6974 10.3806 94.3288 9.9915C93.9608 9.60186 93.7355 9.07146 93.7355 8.47782C93.7355 7.88418 93.9608 7.35378 94.3288 6.96414C94.6974 6.57501 95.1995 6.33683 95.761 6.33683C96.3221 6.33683 96.8237 6.57501 97.1928 6.96363C97.5599 7.35378 97.7852 7.88418 97.7856 8.47782H98.5092H99.2328C99.2323 6.45005 97.6785 4.80734 95.761 4.80683C93.8431 4.80734 92.2888 6.45005 92.2878 8.47782C92.2888 10.5061 93.8431 12.1483 95.761 12.1488C97.6785 12.1483 99.2323 10.5056 99.2328 8.47782H98.5092Z" fill="white"/>
<path d="M20.9274 130.52H20.2034C20.2034 131.114 19.9781 131.644 19.6105 132.034C19.242 132.423 18.7403 132.661 18.1793 132.661C17.6178 132.661 17.1156 132.423 16.7466 132.034C16.379 131.644 16.1537 131.114 16.1532 130.52C16.1537 129.926 16.379 129.396 16.7466 129.006C17.1156 128.617 17.6178 128.379 18.1793 128.379C18.7403 128.379 19.242 128.617 19.6105 129.006C19.9781 129.396 20.2034 129.926 20.2034 130.52H20.9274H21.651C21.6505 128.492 20.0968 126.849 18.1793 126.849C16.2613 126.849 14.7065 128.492 14.7061 130.52C14.7065 132.548 16.2613 134.191 18.1793 134.191C20.0968 134.191 21.65 132.547 21.651 130.52H20.9274Z" fill="white"/>
</svg>
