<svg width="186" height="147" viewBox="0 0 186 147" fill="none" xmlns="http://www.w3.org/2000/svg">
<path d="M170.653 133.145H131.997V72.216C131.997 71.043 130.913 70.092 129.576 70.092H57.2009C55.8639 70.092 54.7804 71.043 54.7804 72.216V133.145H15.3469C6.87111 133.145 0 127.116 0 119.678V27.0356C0 19.5982 6.87111 13.5689 15.3469 13.5689H170.653C179.129 13.5689 186 19.5982 186 27.0356V119.678C186 127.116 179.129 133.145 170.653 133.145Z" fill="#FAFDFB"/>
<path d="M51.1295 15.4537L52.1004 11.2195C52.263 10.8696 52.7127 10.6956 53.1166 10.8271L53.7351 11.028C54.1433 11.1605 54.3551 11.5556 54.2115 11.916L53.0264 17.3344L52.8717 21.9745L50.8373 25.3832L44.488 24.6492L44.1565 22.0128L44.1608 16.8216L44.6249 16.1472C45.1114 15.4405 46.0153 15.04 46.9524 15.1157L51.1295 15.4537Z" fill="#F78F89"/>
<path d="M52.9547 19.4815L52.6251 19.7457L51.1524 19.7417L51.1297 15.4536L46.9525 15.1156C46.0155 15.0399 45.1115 15.4404 44.625 16.1472L44.161 16.8216L44.1606 17.4249L45.5882 20.624L48.025 20.3639L47.2966 22.163L50.5775 25.3091L51.1788 24.8119L52.8718 21.9745L52.9547 19.4815Z" fill="#F46D7B"/>
<path d="M50.4603 25.7882L54.9164 22.1048C55.0214 22.0181 55.0975 21.9082 55.1371 21.7867L56.4536 18.7045L56.5776 17.7448C56.6436 17.2328 56.2228 16.7518 55.6423 16.6753L55.6405 16.675C55.2347 16.6217 54.8489 16.8472 54.7485 17.1962L54.2857 18.8031L52.5076 20.2257L50.0373 20.5683C49.2491 20.6773 48.5407 21.0515 48.0616 21.6114L47.1794 22.6424L50.4603 25.7882Z" fill="#F78F89"/>
<path d="M49.7821 19.4487C50.3079 19.3595 50.707 18.9819 50.769 18.5154L51.1928 15.3182L51.1296 15.4536L46.9525 15.1156C46.0154 15.04 45.1115 15.4404 44.625 16.1472L44.1609 16.8216L45.5759 19.352C45.8199 19.7886 46.3668 20.0275 46.9107 19.9354L49.7821 19.4487Z" fill="#F78F89"/>
<path d="M80.0186 34.3368C78.8194 32.8951 76.5155 32.5788 74.8722 33.6309C68.8439 37.4901 62.2159 38.1691 57.1426 35.4502C53.1091 33.2875 51.5293 29.1217 52.1174 24.8258L44.2051 23.7498C43.4768 30.3706 46.9534 37.5621 53.3015 40.9659C54.3371 41.521 55.416 41.9856 56.5287 42.36C63.5723 44.7301 71.9661 43.493 79.2141 38.8527C80.8575 37.8007 81.2175 35.7788 80.0186 34.3368Z" fill="#E5E0E9"/>
<path d="M75.6287 23.9203C75.6352 23.651 66.9522 5.62368 84.0152 2.43127C86.3903 -2.82369 125.344 -1.30815 107.946 24.7762L75.6287 23.9203Z" fill="#512539"/>
<path d="M110.121 23.7637L74.2789 21.8021C73.1509 21.7402 72.2936 20.888 72.3639 19.8982C72.4342 18.9084 73.4056 18.1562 74.5336 18.2178L110.376 20.1797C111.503 20.2413 112.361 21.0938 112.29 22.0833C112.22 23.0731 111.249 23.8254 110.121 23.7637Z" fill="#F57F77"/>
<path d="M96.1252 71.5167L81.487 70.7596C77.7104 70.5644 74.7761 67.7733 74.8203 64.4185L75.4541 16.0096C75.487 10.6008 80.6319 6.31922 86.72 6.63407L99.5141 7.29584C105.602 7.61068 110.138 12.3932 109.447 17.7678L103.595 65.9068C103.189 69.243 99.9017 71.7123 96.1252 71.5167Z" fill="#F78F89"/>
<path d="M74.8814 59.7444L74.8203 64.4185C74.7761 67.7733 77.7107 70.5644 81.487 70.7596L96.1252 71.5167C99.9017 71.7123 103.189 69.243 103.595 65.9068L104.161 61.2446L74.8814 59.7444Z" fill="#3D3149"/>
<path d="M74.8301 63.6538L103.689 65.1324L107.388 34.7008L91.6306 35.3455L75.2309 33.053L74.8301 63.6538Z" fill="#E5E0E9"/>
<path d="M91.6307 35.3455L87.9644 36.7606L90.1464 38.6187L92.0626 38.7208L94.6277 37.3531L91.6307 35.3455Z" fill="#F14C6A"/>
<path d="M96.8873 27.6757C96.8044 29.2375 94.3222 31.3701 91.4059 31.2514C88.4897 31.1323 86.2439 28.8069 86.3264 27.245C86.4093 25.6832 88.7319 25.9635 91.6481 26.0823C94.5643 26.2014 96.9698 26.1138 96.8873 27.6757Z" fill="#B73146"/>
<path d="M82.2936 19.4395C82.3047 18.572 81.7298 17.8628 81.0091 17.8558C80.2887 17.8488 79.696 18.5464 79.685 19.4142C79.6739 20.2817 80.2491 20.9909 80.9695 20.9979C81.6899 21.0049 82.2826 20.3073 82.2936 19.4395Z" fill="#512539"/>
<path d="M105.018 20.997C105.03 20.1295 104.455 19.4203 103.734 19.4133C103.014 19.4063 102.421 20.1039 102.41 20.9714C102.399 21.8392 102.974 22.5484 103.694 22.5554C104.415 22.5624 105.008 21.8645 105.018 20.997Z" fill="#512539"/>
<path d="M83.6989 16.4186C81.9101 15.0994 79.8069 15.6287 78.9447 16.093C78.728 16.2096 78.6602 16.4585 78.7931 16.6486C78.9257 16.8388 79.2096 16.8983 79.4263 16.7817C79.4457 16.7714 81.3735 15.7593 83.1065 17.0373C83.1912 17.0998 83.2944 17.131 83.3972 17.1318C83.5301 17.1332 83.6627 17.0841 83.7551 16.9877C83.9187 16.817 83.8935 16.5622 83.6989 16.4186Z" fill="#512539"/>
<path d="M106.421 18.1779C104.633 16.8589 102.53 17.3882 101.667 17.8525C101.451 17.9691 101.383 18.2177 101.516 18.4081C101.648 18.598 101.932 18.6578 102.149 18.5412C102.168 18.531 104.096 17.5185 105.829 18.7965C105.914 18.8593 106.017 18.8903 106.12 18.8913C106.253 18.8927 106.385 18.8434 106.478 18.7472C106.641 18.5765 106.616 18.3217 106.421 18.1779Z" fill="#512539"/>
<path d="M76.3428 11.0023C83.2308 14.001 101.701 16.222 91.3922 10.7367C102.472 13.9014 134.494 18.6134 101.708 7.2424C101.708 7.2424 81.5214 -0.307824 76.3428 11.0023Z" fill="#512539"/>
<path d="M75.231 33.0529L84.9053 38.4563L91.6306 35.3455L96.8501 39.6608L107.388 34.7007L91.6306 35.3455L75.231 33.0529Z" fill="#FAF4FA"/>
<path d="M90.1464 38.6187L85.8416 55.1754L89.7372 59.2197L94.116 55.797L92.0626 38.7208L90.1464 38.6187Z" fill="#F14C6A"/>
<path d="M96.0961 29.2973C93.3395 27.0584 89.4055 28.6628 87.5725 29.6308C88.4949 30.4972 89.8534 31.1878 91.4062 31.2514C93.3653 31.3311 95.1247 30.3941 96.0961 29.2973Z" fill="#F14C6A"/>
<path d="M121.363 66.0821L125.482 67.4789L128.887 67.6871C129.661 67.7983 130.224 68.3227 130.228 68.9362V68.9365C130.232 69.6527 129.481 70.2325 128.562 70.222L115.282 70.0688C114.61 70.061 114.07 69.581 114.07 68.9914L114.07 65.9973L121.363 66.0821Z" fill="#F78F89"/>
<path d="M114.068 66.7864C112.522 55.2621 105.872 42.5504 102.314 39.9317L107.048 34.9789C112.849 39.2487 119.816 54.3391 121.384 66.0309L114.068 66.7864Z" fill="#E5E0E9"/>
<path d="M40.7184 146.459H145.282C146.638 146.459 147.737 145.494 147.737 144.304C147.737 143.114 146.638 142.149 145.282 142.149H40.7184C39.3621 142.149 38.2629 143.114 38.2629 144.304C38.2629 145.494 39.3621 146.459 40.7184 146.459Z" fill="#D3AF9B"/>
<path d="M66.8826 143.945H60.3476C59.9464 143.945 59.6213 143.66 59.6213 143.308V139.166H67.6088V143.308C67.6088 143.66 67.2837 143.945 66.8826 143.945Z" fill="#6C7799"/>
<path d="M126.429 143.945H119.894C119.493 143.945 119.168 143.66 119.168 143.308V139.166H127.156V143.308C127.156 143.66 126.831 143.945 126.429 143.945Z" fill="#6C7799"/>
<path d="M129.576 141.247H57.2008C55.8638 141.247 54.7803 140.296 54.7803 139.123V72.2159C54.7803 71.0429 55.8638 70.0919 57.2008 70.0919H129.576C130.913 70.0919 131.997 71.0429 131.997 72.2159V139.123C131.997 140.296 130.913 141.247 129.576 141.247Z" fill="#ACB4CA"/>
<path d="M122.879 134.662H63.8982C62.8089 134.662 61.9255 133.887 61.9255 132.931V78.4073C61.9255 77.4511 62.8089 76.6763 63.8982 76.6763H122.879C123.968 76.6763 124.851 77.4511 124.851 78.4073V132.931C124.851 133.887 123.968 134.662 122.879 134.662Z" fill="#6C7799"/>
<path d="M63.8984 133.6C63.4782 133.6 63.1362 133.3 63.1362 132.931V78.4074C63.1362 78.0386 63.4782 77.7383 63.8984 77.7383H122.879C123.299 77.7383 123.641 78.0386 123.641 78.4074V132.931C123.641 133.3 123.299 133.6 122.879 133.6H63.8984Z" fill="#ACB4CA"/>
<path d="M123.641 90.0759V78.4073C123.641 78.4071 123.641 78.4071 123.641 78.4068C123.641 78.4071 123.641 78.4071 123.641 78.4073V90.0759ZM123.641 78.4028C123.641 78.4022 123.641 78.4017 123.641 78.4011C123.641 78.4017 123.641 78.4022 123.641 78.4028ZM123.641 78.3979C123.641 78.3976 123.641 78.3971 123.641 78.3968C123.641 78.3971 123.641 78.3976 123.641 78.3979ZM123.641 78.3931C123.641 78.3928 123.641 78.3925 123.641 78.3925C123.641 78.3925 123.641 78.3928 123.641 78.3931Z" fill="#77819F"/>
<path d="M74.0399 133.6H63.8984C63.4782 133.6 63.1362 133.3 63.1362 132.931V130.743L123.363 77.8951C123.527 78.0149 123.636 78.1919 123.641 78.3925C123.641 78.3925 123.641 78.3928 123.641 78.3931C123.641 78.3942 123.641 78.3955 123.641 78.3969C123.641 78.3971 123.641 78.3977 123.641 78.3979C123.641 78.399 123.641 78.4001 123.641 78.4012C123.641 78.4017 123.641 78.4022 123.641 78.4028C123.641 78.4041 123.641 78.4055 123.641 78.4068C123.641 78.4071 123.641 78.4071 123.641 78.4074V90.076L74.0399 133.6Z" fill="#B3BACE"/>
<path d="M63.1362 101.131V87.6137L74.3904 77.7383H89.7947L63.1362 101.131Z" fill="#B3BACE"/>
<path d="M88.3242 105.669C88.3242 100.647 83.6842 96.5758 77.961 96.5758C72.2376 96.5758 67.5979 100.647 67.5979 105.669C67.5979 110.692 72.2376 114.763 77.961 114.763C83.6842 114.763 88.3242 110.692 88.3242 105.669Z" fill="#CED5EF"/>
<path d="M85.3771 105.669C85.3771 102.075 82.0569 99.1619 77.9612 99.1619C73.8654 99.1619 70.5449 102.075 70.5449 105.669C70.5449 109.263 73.8654 112.177 77.9612 112.177C82.0569 112.177 85.3771 109.263 85.3771 105.669Z" fill="#3D3149"/>
<path d="M82.441 105.669C82.441 103.498 80.4352 101.738 77.9613 101.738C75.487 101.738 73.4812 103.498 73.4812 105.669C73.4812 107.84 75.487 109.6 77.9613 109.6C80.4352 109.6 82.441 107.84 82.441 105.669Z" fill="#E9E9E7"/>
<path d="M77.9612 100.244C77.8273 100.244 77.719 100.149 77.719 100.032V98.9698C77.719 98.8524 77.8273 98.7573 77.9612 98.7573C78.0947 98.7573 78.203 98.8524 78.203 98.9698V100.032C78.203 100.149 78.0947 100.244 77.9612 100.244Z" fill="#E9E9E7"/>
<path d="M73.5863 101.809C73.4917 101.892 73.3386 101.892 73.244 101.809L72.3883 101.058C72.2937 100.976 72.2937 100.841 72.3883 100.758C72.4828 100.675 72.636 100.675 72.7305 100.758L73.5863 101.509C73.6808 101.592 73.6808 101.726 73.5863 101.809Z" fill="#E9E9E7"/>
<path d="M71.7547 105.63C71.7547 105.748 71.6463 105.843 71.5125 105.843H70.3022C70.1687 105.843 70.0601 105.748 70.0601 105.63C70.0601 105.513 70.1687 105.418 70.3022 105.418H71.5125C71.6463 105.418 71.7547 105.513 71.7547 105.63Z" fill="#E9E9E7"/>
<path d="M73.5382 109.469C73.6327 109.552 73.6327 109.687 73.5382 109.77L72.6824 110.52C72.5879 110.603 72.4347 110.603 72.3402 110.52C72.2457 110.437 72.2457 110.303 72.3402 110.22L73.1959 109.469C73.2905 109.386 73.4436 109.386 73.5382 109.469Z" fill="#E9E9E7"/>
<path d="M77.8931 111.077C78.0266 111.077 78.1349 111.172 78.1349 111.289V112.351C78.1349 112.469 78.0266 112.564 77.8931 112.564C77.7592 112.564 77.6509 112.469 77.6509 112.351V111.289C77.6509 111.172 77.7592 111.077 77.8931 111.077Z" fill="#E9E9E7"/>
<path d="M82.2677 109.511C82.3622 109.428 82.5154 109.428 82.6099 109.511L83.4659 110.262C83.5605 110.345 83.5605 110.48 83.4659 110.563C83.3714 110.646 83.2179 110.646 83.1234 110.563L82.2677 109.812C82.1731 109.729 82.1731 109.594 82.2677 109.511Z" fill="#E9E9E7"/>
<path d="M84.0996 105.69C84.0996 105.573 84.208 105.478 84.3415 105.478H85.5517C85.6856 105.478 85.7939 105.573 85.7939 105.69C85.7939 105.808 85.6856 105.903 85.5517 105.903H84.3415C84.208 105.903 84.0996 105.808 84.0996 105.69Z" fill="#E9E9E7"/>
<path d="M82.3158 101.852C82.2212 101.769 82.2212 101.634 82.3158 101.551L83.1715 100.8C83.2661 100.717 83.4195 100.717 83.5141 100.8C83.6083 100.883 83.6083 101.018 83.5141 101.101L82.658 101.852C82.5635 101.935 82.4103 101.935 82.3158 101.852Z" fill="#E9E9E7"/>
<path d="M114.173 105.669C114.173 103.111 111.809 101.036 108.893 101.036C105.977 101.036 103.613 103.111 103.613 105.669C103.613 108.228 105.977 110.302 108.893 110.302C111.809 110.302 114.173 108.228 114.173 105.669Z" fill="#BEC5DE"/>
<path d="M112.111 105.894C112.111 104.334 110.67 103.07 108.893 103.07C107.115 103.07 105.674 104.334 105.674 105.894C105.674 107.454 107.115 108.718 108.893 108.718C110.67 108.718 112.111 107.454 112.111 105.894Z" fill="#919AC0"/>
<path d="M108.893 116.9C107.734 116.9 106.795 116.076 106.795 115.059V106.209C106.795 105.193 107.734 104.368 108.893 104.368C110.052 104.368 110.991 105.193 110.991 106.209V115.059C110.991 116.076 110.052 116.9 108.893 116.9Z" fill="#E9E9E7"/>
<path d="M67.5744 92.0402H61.9255V88.0753H67.5744C68.8218 88.0753 69.8329 88.9625 69.8329 90.0571V90.0584C69.8329 91.153 68.8218 92.0402 67.5744 92.0402Z" fill="#BEC5DE"/>
<path d="M64.5075 92.0402H61.9255V81.9865H64.5075V92.0402Z" fill="#CED5EF"/>
<path d="M67.5744 119.299H61.9255V123.263H67.5744C68.8218 123.263 69.8329 122.376 69.8329 121.282V121.28C69.8329 120.186 68.8218 119.299 67.5744 119.299Z" fill="#BEC5DE"/>
<path d="M64.5075 119.299H61.9255V129.352H64.5075V119.299Z" fill="#CED5EF"/>
<path d="M65.0909 85.3822L59.156 90.4363L70.4872 87.2641L69.1226 84.4654L65.0909 85.3822Z" fill="#512539"/>
<path d="M64.8323 85.847L64.1481 72.3871C64.018 70.0313 65.9244 67.9894 68.5821 67.638L78.731 66.2951L79.3719 70.0237L69.2227 71.3666C68.7537 71.4286 68.4173 71.7887 68.4403 72.2045L69.1245 84.5871L64.8323 85.847Z" fill="#3D3149"/>
<path d="M83.8143 85.3822L77.8794 90.4363L89.2106 87.2641L87.846 84.4654L83.8143 85.3822Z" fill="#512539"/>
<path d="M83.5554 85.847L82.8713 72.3871C82.7411 70.0313 84.6475 67.9894 87.3053 67.638L97.4542 66.2951L98.0951 70.0237L87.9459 71.3666C87.4769 71.4286 87.1405 71.7887 87.1635 72.2045L87.8476 84.5871L83.5554 85.847Z" fill="#3D3149"/>
<path d="M115.251 68.8234L117.711 70.9818L120.481 72.3977C121.279 72.8057 122.256 72.7099 122.636 72.1855L122.637 72.1849C123.063 71.5975 122.549 70.755 121.573 70.4432L120.926 70.2363L119.37 68.5546L115.251 68.8234Z" fill="#F78F89"/>
</svg>
