<svg width="229" height="147" viewBox="0 0 229 147" fill="none" xmlns="http://www.w3.org/2000/svg">
<path d="M142.19 146.204C119.864 146.204 97.5395 145.901 75.2186 145.478C66.9121 145.32 58.6003 145.056 50.2892 144.869C45.4253 144.759 40.5621 144.675 35.7004 144.655C35.6332 144.655 35.5661 144.654 35.4987 144.654C33.8357 144.654 32.117 144.74 30.3731 144.826C28.6289 144.912 26.859 144.997 25.0953 144.998C20.935 144.998 16.8059 144.521 13.1067 142.442C1.0541 135.669 16.5621 129.064 13.5373 121.55L13.5347 121.543C12.197 118.229 6.67789 117.832 4.22093 117.004C3.08826 116.623 1.89093 116.192 1.09798 115.087C-3.11205 109.224 5.90323 102.993 9.31692 102.17C12.9917 101.284 16.84 101.096 20.6907 101.096C22.1094 101.096 23.5278 101.122 24.9387 101.147C26.3496 101.173 27.7525 101.198 29.1386 101.198C29.6975 101.198 30.2535 101.194 30.8063 101.184C34.7875 101.112 38.7685 101.039 42.7511 100.967V103.063V105.443C42.7511 107.795 44.588 109.703 46.8541 109.703H140.622C142.888 109.703 144.725 107.795 144.725 105.443V100.525C159.677 100.841 174.599 101.404 189.495 102.315C191.92 102.463 194.349 102.497 196.778 102.497C197.799 102.497 198.819 102.491 199.84 102.485C200.861 102.479 201.883 102.473 202.903 102.473C206.465 102.473 210.025 102.546 213.577 102.946C217.516 103.39 221.572 104.154 225.1 105.973C226.402 106.645 228.663 107.691 228.961 109.212C229.277 110.846 227.588 111.425 227.45 112.893C227.356 113.886 228.593 115.297 228.721 116.433C228.992 118.823 227.748 120.988 226.321 122.844C223.645 126.325 225.317 129.268 224.031 133.565C223.553 135.163 223.435 136.941 222.769 138.424C219.051 146.708 171.275 146.054 158.968 146.144C153.375 146.185 147.782 146.204 142.19 146.204Z" fill="#F2F2F2"/>
<path d="M134.06 39.9604L131.403 39.0051L131.737 37.7769L133.692 38.0016L133.597 37.343L135.778 38.4559L135.592 39.7823L134.06 39.9604Z" fill="#EAD1C5"/>
<path d="M154.618 28.7282L147.245 37.3065L134.655 37.5128L134.63 40.1772L149.545 43.4448L159.979 33.899L154.618 28.7282Z" fill="#145566"/>
<path d="M161.774 23.6761C162.085 23.0019 162.134 22.2117 162.04 21.4621C161.841 19.8537 160.918 18.2948 159.53 17.7232C157.396 16.8443 154.991 18.4377 152.773 17.8643C152.577 18.8227 152.388 19.7963 152.432 20.7779C152.527 22.8734 153.784 24.859 155.543 25.6928C157.302 26.5268 159.478 26.1679 160.929 24.8049C161.269 24.4862 161.573 24.1136 161.774 23.6761Z" fill="#EAD1C5"/>
<path d="M153.227 18.6868L160.307 19.0362L160.774 24.9265L162.992 23.6153L163.424 14.189L153.66 12.2297L149.004 14.1311L148.77 16.8209L152.139 20.2135L153.227 18.6868Z" fill="#0D1929"/>
<path d="M154.704 28.2556L162.658 26.8718C162.658 26.8718 169.56 34.4402 173.369 45.9152C177.178 57.3897 171.169 74.2314 171.169 74.2314C171.169 74.2314 149.28 70.953 145.691 70.4446L151.332 46.622L154.704 28.2556Z" fill="#145566"/>
<path d="M159.378 25.3434C159.595 26.0196 159.889 26.6675 160.252 27.2682C159.229 27.4907 158.206 27.7129 157.182 27.9354C157.034 27.1673 156.886 26.3992 156.738 25.6311C157.502 25.576 158.265 25.5214 159.029 25.4663L159.378 25.3434Z" fill="#EAD1C5"/>
<path d="M79.9998 98.633L79.8481 99.1464L79.3447 100.85L82.0392 103.627L84.1415 102.46L83.0459 100.219L82.9272 100.097L82.8149 100.281L79.9998 98.633Z" fill="#756758"/>
<path d="M94.5466 53.6843C93.0434 53.9877 91.5107 54.4211 90.171 55.236C89.543 55.6182 89.002 56.0863 88.4602 56.5588L88.3421 75.7979L79.843 98.5414L79.9998 98.633L80.3517 97.4426L82.9273 100.097L98.5188 74.4731L99.3423 71.3447L96.5241 53.3249C95.8618 53.4292 95.2019 53.5484 94.5466 53.6843Z" fill="#1A3151"/>
<path d="M79.9998 98.6332L82.8148 100.282L82.9272 100.097L80.3516 97.4428L79.9998 98.6332Z" fill="#1A3151"/>
<path d="M100.745 66.0162L99.3423 71.3449L99.6632 73.3954L101.621 100.521H101.639V100.128H104.775L108.753 71.1235L108.561 53.3727C107.833 53.2919 104.537 52.9378 102.239 52.886L100.745 66.0162Z" fill="#1A3151"/>
<path d="M102.238 52.8861C101.933 52.8791 101.643 52.8773 101.381 52.8825C99.759 52.9147 98.1332 53.0715 96.5239 53.3249L99.3421 71.345L100.745 66.0163L102.238 52.8861Z" fill="#1A3151"/>
<path d="M101.639 100.522V101.915L104.992 103.701L106.668 101.915L104.992 100.128H104.775L104.721 100.522H101.639Z" fill="#756758"/>
<path d="M101.639 100.521H104.721L104.775 100.128H101.639V100.521Z" fill="#756758"/>
<path d="M99.146 18.615C99.2656 18.1478 99.3886 17.6944 99.7651 17.4595C100.107 17.2463 100.541 17.3081 100.915 17.1696C101.62 16.9085 101.924 16.0454 102.14 15.2842C102.328 14.6222 102.516 13.9604 102.704 13.2986C102.788 13.0004 102.872 12.693 102.927 12.3845C101.855 11.9576 100.853 11.1755 99.7336 10.8763C98.4781 10.5413 96.1855 10.0459 95.1254 11.1657C95.1022 11.1902 95.0812 11.218 95.0611 11.2471C94.9828 11.6429 94.9046 12.0384 94.8263 12.4339C94.8214 13.5512 95.1049 15.0115 95.0694 15.6053C94.9169 15.5512 94.7685 15.4776 94.6238 15.3905C94.9507 15.9547 95.6348 16.3065 96.2485 16.564C96.1072 17.3712 96.0265 18.1906 96.0074 19.0112C96.0441 19.0169 96.0811 19.0221 96.1178 19.0275C97.1373 18.8879 98.1604 18.7872 99.0549 18.6299C99.0853 18.6245 99.1155 18.6201 99.146 18.615Z" fill="#EAD1C5"/>
<path d="M94.5158 14.001C94.6193 13.4788 94.7227 12.9564 94.8261 12.4339C94.828 11.9328 94.8882 11.5007 95.061 11.2471C95.1076 11.0117 95.1542 10.7764 95.2009 10.541C95.2799 10.1421 95.3632 9.73142 95.58 9.39539C95.9606 8.80597 96.6674 8.56933 97.3326 8.47303C99.0301 8.22711 100.855 8.68881 102.122 9.91734C102.459 10.2444 102.761 10.6335 102.898 11.0967C103.022 11.5138 103.004 11.9503 102.927 12.3844C103.166 12.48 103.409 12.558 103.658 12.6085C104.637 12.8073 105.912 12.342 106.768 11.8324C107.825 11.2033 108.373 9.26947 109.014 8.23509C109.19 7.95158 109.378 7.67889 109.587 7.42448C110.039 6.87343 110.589 6.40711 110.959 5.79014C111.329 5.17291 111.481 4.32264 111.083 3.7255C110.827 3.34028 110.396 3.13557 109.975 2.98571C108.59 2.49131 107.079 2.40221 105.651 2.73052C104.291 3.04338 103.063 3.60139 101.726 3.00811C100.468 2.45088 99.5404 2.62135 98.1909 3.07558C96.7302 3.56715 94.7903 3.62044 93.4584 4.34299C92.9024 4.64478 92.4501 5.13274 92.0917 5.67736C90.8507 7.56406 90.7521 10.2289 91.8499 12.2137C92.0961 12.6589 92.3952 13.0689 92.7106 13.4616C93.2559 14.1403 93.8902 14.9504 94.6236 15.3905C94.5296 15.228 94.4634 15.0491 94.4392 14.8482C94.4049 14.5655 94.4605 14.2799 94.5158 14.001Z" fill="#1A3151"/>
<path d="M94.8259 12.4338C94.7225 12.9563 94.6191 13.4788 94.5156 14.001C94.4603 14.2799 94.4047 14.5654 94.439 14.8482C94.4632 15.049 94.5294 15.228 94.6234 15.3905C94.7681 15.4775 94.9165 15.5511 95.069 15.6052C95.1045 15.0114 94.8211 13.5511 94.8259 12.4338Z" fill="#1A3151"/>
<path d="M102.898 11.0966C102.761 10.6334 102.459 10.2443 102.122 9.91729C100.854 8.68875 99.0299 8.22706 97.3324 8.47297C96.6672 8.56928 95.9604 8.80592 95.5798 9.39533C95.3631 9.73137 95.2797 10.1421 95.2007 10.541C95.1541 10.7763 95.1074 11.0117 95.0608 11.247C95.0808 11.2179 95.1019 11.1901 95.1251 11.1656C96.1851 10.0458 98.4778 10.5412 99.7333 10.8762C100.853 11.1754 101.855 11.9575 102.927 12.3844C103.004 11.9503 103.022 11.5138 102.898 11.0966Z" fill="#1A3151"/>
<path d="M82.6116 3.98714L83.2684 2.53406L83.0502 2.22918L82.6873 2.50059L82.9084 1.12837L82.3799 0.148319L80.9757 -7.62939e-06L79.7432 0.829664L79.7526 2.33089L80.601 3.87074L80.7827 4.47742L82.7759 4.46273L82.6116 3.98714Z" fill="#EAD1C5"/>
<path d="M121.508 46.6056C120.991 45.812 119.235 45.2805 118.443 44.7926C116.676 43.7033 114.977 42.4599 113.48 40.9661C111.354 38.8435 109.785 36.2397 108.802 33.307C108.306 31.8267 107.949 30.2966 107.654 28.7567C107.547 28.2003 108.294 28.6653 108.202 28.106L114.434 27.9423L105.356 17.8287L105.326 18.3195C105.321 18.1568 105.329 17.9933 105.356 17.8287C103.258 18.7173 101.269 18.2639 99.1458 18.6149C99.1153 18.62 99.0851 18.6244 99.0547 18.6298C98.1601 18.7871 97.1373 18.8878 96.1176 19.0274C94.9766 19.1837 93.8397 19.3894 92.8922 19.7821C92.601 19.9026 92.3302 20.0715 92.0772 20.277L86.1109 14.7372L83.5955 4.45673L82.7759 4.46265L80.7826 4.47733L80.0669 4.48248L81.7496 20.9455L87.8911 30.0445C87.5119 31.7824 87.1925 33.5148 87.0497 34.5183C86.6928 37.023 86.3625 39.5331 86.1056 42.0528C85.8188 44.8644 85.6221 47.6884 85.5803 50.5173C85.5757 50.8315 85.532 51.7119 85.5117 52.7663C85.4689 54.986 85.5303 57.9773 86.2803 58.0865C86.4207 58.1071 86.5556 58.0283 86.6783 57.9518C87.338 57.5424 87.8995 57.048 88.4601 56.5588C89.0019 56.0863 89.5429 55.6181 90.1709 55.236C91.5105 54.421 93.0432 53.9876 94.5465 53.6843C95.2018 53.5483 95.8617 53.4291 96.524 53.3248C98.1333 53.0714 99.759 52.9146 101.381 52.8825C101.644 52.8773 101.933 52.8791 102.238 52.886C104.537 52.9378 107.833 53.2919 108.561 53.3727C108.655 53.3833 108.709 53.3892 108.709 53.3892C110.106 53.1222 111.441 52.5747 112.78 52.0669C115.08 51.195 117.429 50.4264 119.587 49.2048C120.28 48.8129 122.191 47.6544 121.508 46.6056Z" fill="#C8D6A1"/>
<path d="M215.522 93.9096L212.038 110.404L208.834 130.029H205.595L204.27 82.2786L214.981 82.4858L215.522 93.9096Z" fill="#9EA6AD"/>
<path d="M195.015 92.9009L194.565 108.912L199.09 130.029H201.998L202.295 107.76L205.476 89.5341L206.267 83.7162L197.35 82.595L195.015 92.9009Z" fill="#9EA6AD"/>
<path d="M202.069 49.8276L212.179 50.6225L217.641 60.6591C216.035 66.7582 216.684 64.6225 215.707 70.1353L218.597 85.3147L214.826 86.4855L201.12 86.7456L196.612 85.9049L197.845 71.4218L197.206 52.0825L202.069 49.8276Z" fill="#B5D6CA"/>
<path d="M200.076 57.7181L194.992 66.083L180.936 67.7212L180.529 65.2551L191.753 60.5944L197.206 52.0824L200.076 57.7181Z" fill="#B5D6CA"/>
<path d="M202.605 40.5367C204.138 35.786 210.023 37.5661 211.237 41.7963C212.028 44.5555 210.028 48.1365 207.346 48.9288C207.334 49.0375 207.325 49.139 207.324 49.225C207.323 49.6679 207.271 50.1046 207.21 50.5472C207.187 50.7123 204.839 50.2313 204.577 50.1764C204.485 50.1571 204.383 50.1306 204.334 50.0487C204.239 49.8916 204.393 49.4289 204.41 49.2543C204.431 49.0483 204.451 48.8423 204.471 48.6361C203.148 47.9478 202.313 46.4816 202.08 44.9891C201.845 43.4894 202.144 41.9642 202.605 40.5367Z" fill="#B77E6C"/>
<path d="M206.829 36.1089C207.119 36.4748 207.209 36.9594 207.267 37.4229C207.302 37.6995 207.329 37.9851 207.255 38.2503C206.96 39.3081 205.963 39.1706 205.165 39.4544C204.179 39.8043 203.3 40.5245 202.701 41.3877C201.763 42.739 202.009 44.5956 202.236 46.1885C202.317 46.7499 202.499 47.5896 202.062 48.0489C201.618 48.5158 200.681 48.3623 200.211 48.0652C199.781 47.7943 199.445 47.3297 198.961 47.2025C198.449 47.0676 197.731 47.254 197.525 46.7269C197.468 46.5804 197.474 46.4074 197.399 46.2714C197.143 45.811 196.394 46.265 196.012 45.9243C195.777 45.7144 195.807 45.3112 195.914 44.9983C196.021 44.6857 196.186 44.3734 196.15 44.044C196.12 43.7608 195.947 43.5247 195.848 43.261C195.653 42.7406 195.779 42.0932 196.153 41.6974C196.849 40.961 198.074 41.211 198.812 40.5253C199.196 40.1682 199.374 39.6225 199.545 39.1062C199.715 38.5899 199.914 38.0471 200.321 37.7209C200.824 37.3181 201.498 37.4482 202 36.9625C202.295 36.6772 202.506 36.292 202.831 36.0489C203.26 35.7291 204.069 35.5221 204.584 35.3828C205.402 35.1624 206.28 35.416 206.829 36.1089Z" fill="#1A3151"/>
<path d="M210.001 43.9692C209.917 45.5307 209.07 47.1571 209.646 48.5844C210.227 50.0246 211.905 50.4119 213.345 50.6011C213.582 50.6323 216.611 51.1602 216.629 51.0997C216.935 50.0323 217.25 48.9436 217.851 48.0334C218.451 47.1228 219.398 46.4052 220.423 46.4201C220.133 46.3418 220.012 45.9461 220.069 45.625C220.126 45.3041 220.304 45.025 220.417 44.7214C220.695 43.9754 220.541 43.0659 220.039 42.485C219.037 41.326 217.049 41.6126 216.212 40.3068C215.693 39.4972 215.84 38.3959 215.607 37.4398C215.154 35.5912 213.33 35.0641 212.005 34.1381C210.606 33.1609 209.265 32.579 207.558 32.7417C205.442 32.9431 203.727 35.0839 204.38 37.2825C205.218 40.1024 209.367 40.2012 209.943 43.042C210.004 43.3471 210.018 43.6569 210.001 43.9692Z" fill="#1A3151"/>
<path d="M208.834 50.3695L205.854 54.8583L204.453 54.7362L202.551 49.8635L208.834 50.3695Z" fill="#F0F7F4"/>
<path d="M205.595 130.029L203.869 132.395L205.476 134.268L207.73 132.148L208.834 130.029H205.595Z" fill="#1A3151"/>
<path d="M198.862 130.029L197.136 132.395L198.743 134.268L200.998 132.148L202.102 130.029H198.862Z" fill="#1A3151"/>
<path d="M185.729 70.3846L187.669 69.6626C187.669 69.6626 189.165 69.7916 189.502 70.2216L190.091 71.8879L187.953 73.79L186.062 72.7801L185.729 70.3846Z" fill="#B77E6C"/>
<path d="M93.7379 27.6933V26.244C93.7379 23.8913 91.901 21.984 89.6349 21.984H46.854C44.5879 21.984 42.751 23.8913 42.751 26.244V103.063H144.725V31.9533C144.725 29.6006 142.888 27.6933 140.622 27.6933H93.7379Z" fill="#89D6D6"/>
<path d="M47.2781 103.842H141.151V33.8317H47.2781V103.842Z" fill="white"/>
<path d="M92.2837 42.5853L90.7699 46.9432H46.854C44.5879 46.9432 42.751 48.8503 42.751 51.2033V105.443C42.751 107.795 44.5879 109.703 46.854 109.703H140.622C142.888 109.703 144.725 107.795 144.725 105.443V44.0309C144.725 41.6781 142.888 39.7706 140.622 39.7706H96.1431C94.414 39.7706 92.8704 40.8963 92.2837 42.5853Z" fill="#3ABABA"/>
<path d="M152.8 61.0961V59.864C152.8 57.8627 151.238 56.2407 149.31 56.2407H112.927C111 56.2407 109.438 57.8627 109.438 59.864V125.195H196.162V64.7192C196.162 62.7184 194.6 61.0961 192.672 61.0961H152.8Z" fill="#254368"/>
<path d="M193.122 125.857H113.288V66.3167H193.122V125.857Z" fill="white"/>
<path d="M151.563 73.7615L150.275 77.4677H112.927C111 77.4677 109.438 79.0897 109.438 81.0907V127.219C109.438 129.22 111 130.842 112.927 130.842H192.672C194.6 130.842 196.162 129.22 196.162 127.219V74.9911C196.162 72.9898 194.6 71.3678 192.672 71.3678H154.845C153.375 71.3678 152.062 72.3252 151.563 73.7615Z" fill="#1A3151"/>
<path d="M109.23 25.9598L111.17 25.2378C111.17 25.2378 112.666 25.3668 113.002 25.7968L113.591 27.4631L111.453 29.365L109.563 28.3551L109.23 25.9598Z" fill="#EAD1C5"/>
<path d="M58.286 90.4897L53.1372 86.3538L71.2435 60.7359L76.3923 64.8721L58.286 90.4897Z" fill="#9EA6AD"/>
<path d="M49.8539 96.7751L49.7945 96.7274C48.1702 95.4227 47.5922 93.3202 48.5032 92.0312L58.8193 77.2012L65.0236 81.9655L54.4443 96.8037C53.5333 98.0927 51.4779 98.0801 49.8539 96.7751Z" fill="#1A3151"/>
<path d="M95.5255 67.0928C89.1238 76.1498 76.9956 77.9183 68.4359 71.0425C59.8766 64.1668 58.1272 51.2506 64.5286 42.1935C70.9303 33.1365 83.0585 31.368 91.618 38.2437C100.177 45.1192 101.927 58.0354 95.5255 67.0928Z" fill="#1A3151"/>
<path d="M93.3598 65.353C87.8527 73.1447 77.4193 74.666 70.0557 68.751C62.6925 62.8365 61.1874 51.7248 66.6945 43.9334C72.2014 36.1419 82.635 34.6204 89.9984 40.5354C97.3618 46.4504 98.8667 57.5616 93.3598 65.353Z" fill="#D1E7F5"/>
<path d="M80.2371 68.1626H95.7245V39.5358H80.2371V68.1626Z" fill="#DAEBF6"/>
<path d="M82.2866 69.8579C81.9637 69.8579 81.6378 69.7498 81.3594 69.5263C80.6819 68.9819 80.5434 67.9596 81.0501 67.2427C81.3485 66.8204 81.8043 66.5985 82.2667 66.5985C82.5896 66.5985 82.9158 66.7064 83.1941 66.9301C83.8717 67.4742 84.0102 68.4965 83.5034 69.2134C83.205 69.6357 82.7491 69.8579 82.2866 69.8579Z" fill="#DDEDF6"/>
<path d="M59.019 77.4304L64.9219 81.9637C65.1246 82.1192 65.4042 82.0871 65.5687 81.8895L65.6224 81.8254C65.8135 81.5955 65.7734 81.2386 65.5361 81.0601L59.5853 76.5827C59.3626 76.4154 59.0552 76.4741 58.9037 76.7128L58.8981 76.7213C58.7517 76.9525 58.8053 77.2666 59.019 77.4304Z" fill="#145566"/>
<path d="M78.5451 71.8383C74.5588 71.4351 70.8159 69.5195 68.0393 66.428C65.2984 63.3763 63.6927 59.3429 63.4687 55.1508C63.2399 50.8647 64.5955 46.5948 67.1056 43.2764C69.5502 40.0443 73.0998 37.8576 76.9368 37.1204C80.9156 36.3564 85.1183 37.2416 88.5634 39.5174C91.8817 41.7095 94.4182 45.1708 95.6153 49.1206C96.865 53.244 96.6019 57.7608 94.9578 61.692C93.3746 65.4778 90.4638 68.5413 86.9497 70.2959C84.3393 71.5993 81.4218 72.1069 78.5451 71.8383C77.9758 71.7853 77.9014 72.7233 78.4707 72.7766C82.4669 73.1497 86.4302 72.0543 89.7457 69.6889C92.9829 67.3794 95.398 63.8537 96.539 59.8908C97.7223 55.7809 97.4809 51.2896 95.9212 47.3114C94.4218 43.4876 91.6614 40.2526 88.2613 38.2428C84.7073 36.1419 80.514 35.4443 76.5395 36.2389C72.699 37.0065 69.2172 39.22 66.6779 42.3497C64.0668 45.5674 62.6305 49.7657 62.5691 54.0193C62.5084 58.2366 63.8599 62.3842 66.2985 65.7188C69.2441 69.7469 73.7221 72.2964 78.4707 72.7766C79.0397 72.8343 79.1139 71.8957 78.5451 71.8383Z" fill="#145566"/>
<path d="M66.5552 78.5905L66.5787 78.5384L66.5552 78.5905ZM51.5757 94.4983L51.5317 94.4643L51.5786 94.4942L51.5757 94.4983Z" fill="#737373"/>
<path d="M28.7444 134.534L28.8701 134.621L30.1186 136.268L28.6625 137.625L26.0613 135.832L26.1652 134.33L26.1964 133.878L28.6985 134.715L28.7444 134.534Z" fill="#9C897A"/>
<path d="M28.7347 101.792L26.0571 133.831L26.1966 133.878L28.6987 134.715L28.7446 134.535L34.9675 109.999L34.9312 101.641C32.8664 101.716 30.8007 101.768 28.7347 101.792Z" fill="#1A3151"/>
<path d="M42.4873 102.465L40.921 134.925L38.3901 134.999L38.3986 135.332L38.3843 135.332L35.9609 103.18C36.2768 103.166 40.632 102.872 42.4873 102.465Z" fill="#1A3151"/>
<path d="M40.9209 134.623L41.0956 134.618L42.4872 136.089L41.1734 137.64L38.4289 136.208L38.3984 135.029L40.8861 134.957L40.9209 134.623Z" fill="#9C897A"/>
<path d="M37.6939 48.1708C37.6543 47.6231 37.5827 47.0761 37.4909 46.5377C37.264 45.2049 36.7131 44.2485 35.9824 43.6262C35.8132 44.3196 35.3512 44.8897 34.8914 45.422L34.8365 45.4853C33.6426 46.8617 32.4306 48.239 31.5 49.8296C30.7582 51.0975 30.202 52.5238 30.0417 53.9988C30.5081 54.452 31.0327 54.8125 31.6013 55.045C31.6332 55.5005 31.6936 56.0225 31.8328 56.3276C31.8673 56.4028 31.9062 56.4656 31.9509 56.5102C32.3182 56.8748 33.5179 56.5797 33.9874 56.4803C34.1177 56.4527 34.2537 56.4177 34.3506 56.3209C34.3866 56.2843 34.4142 56.228 34.4361 56.1582C34.5161 55.9033 34.5144 55.4575 34.5272 55.0486C35.9382 54.4857 36.9673 53.0723 37.4095 51.5288C37.7195 50.4453 37.776 49.3056 37.6939 48.1708Z" fill="#EAD1C5"/>
<path d="M50.2172 100.329C47.7274 96.8674 47.8545 91.0176 47.2804 86.896C46.6893 82.6524 46.0947 78.398 45.1119 74.2399C45.0174 73.84 44.9208 73.4409 44.8188 73.043C44.5907 72.1544 44.3409 71.2722 44.0743 70.3959C43.4577 68.3707 42.7407 66.38 41.9233 64.4371C41.0314 62.3184 39.9431 58.8368 38.329 57.2328C38.2753 57.1795 38.2195 57.1288 38.1613 57.0801C37.2904 56.3539 35.9184 56.1495 34.4362 56.1582C34.4142 56.228 34.3867 56.2844 34.3507 56.321C34.2538 56.4178 34.1177 56.4528 33.9875 56.4804C33.518 56.5798 32.3183 56.8749 31.951 56.5102C31.9063 56.4657 31.8674 56.4029 31.8328 56.3277C31.2089 56.3923 30.6058 56.4631 30.052 56.518C30.1798 59.7372 30.3779 63.0144 31.2369 66.1351C31.258 66.2121 31.2773 66.2893 31.2993 66.3658C32.4016 70.2136 33.2983 74.1436 34.2956 78.0241C34.3835 78.3663 34.4715 78.7111 34.5548 79.0572C34.8975 80.4817 35.1575 81.9348 34.9835 83.3837C34.9415 83.7344 34.867 84.0857 34.7629 84.4274C34.5152 85.2393 34.0984 85.9968 33.5366 86.5659C33.2297 86.8764 32.8796 87.1306 32.4908 87.3067C32.3526 87.3693 32.2098 87.4223 32.0621 87.4641C31.4397 86.4472 29.9021 87.4244 29.5247 88.57C29.1473 89.7156 29.0755 91.1633 28.0865 91.7666C27.3058 92.2427 26.3076 92.0298 25.32 91.8884C24.707 91.8006 24.098 91.7404 23.5478 91.89C23.031 92.0303 22.5402 92.3491 22.0743 92.5167C21.1465 95.393 19.5995 97.7664 17.2027 100.082C16.696 100.571 16.1141 101.205 16.2869 101.91C16.3913 102.335 16.7479 102.629 17.0945 102.868C20.5158 105.224 24.8399 105.353 28.9134 105.307L28.9588 105.306C31.0248 105.283 33.0903 105.232 35.1553 105.156C35.8507 105.131 36.5462 105.103 37.2416 105.072C37.5574 105.057 37.8732 105.045 38.189 105.03C40.0059 104.942 41.9127 104.763 43.7679 104.357C46.0239 103.863 48.2039 103.033 50.0531 101.615C50.266 101.452 50.4924 101.243 50.5016 100.964C50.5096 100.725 50.354 100.519 50.2172 100.329Z" fill="#EBB044"/>
<path d="M59.3056 69.2583L60.4367 68.3266L60.7436 68.4814L60.5798 68.8921L61.7261 68.4052L62.6794 68.7332L63.0834 70.0866L62.6061 71.4632L61.3025 71.7483L59.801 71.2153L58.9253 71.1218L59.1633 69.2364L59.3056 69.2583Z" fill="#EAD1C5"/>
<path d="M59.2759 71.6465L59.1959 68.5434L46.2735 65.1258L38.1613 57.08L37.6545 65.6905L44.5327 70.5537L59.2759 71.6465Z" fill="#EBB044"/>
<path d="M55.9406 76.2667L57.0952 75.3686L57.3982 75.5326L57.2237 75.9379L58.3821 75.485L59.3267 75.8408L59.6956 77.2053L59.1831 78.5675L57.8727 78.8145L56.3855 78.2377L55.5125 78.1187L55.799 76.2407L55.9406 76.2667Z" fill="#EAD1C5"/>
<path d="M55.94 78.6543L55.86 75.5512L42.9376 72.1336L30.0518 56.5181L24.9011 64.2817L41.1968 77.5615L55.94 78.6543Z" fill="#FFD559"/>
<path d="M38.3376 45.075C38.1583 43.583 37.2657 42.2088 36.0187 41.5045C35.9111 41.5642 35.8065 41.6296 35.7033 41.6979C35.6018 41.4999 35.482 41.3127 35.3479 41.1406C34.5517 40.1207 33.6018 39.6088 32.3883 39.5678C28.1297 39.4247 24.9082 42.0836 23.6682 46.5062C22.6195 50.2453 23.0716 54.2438 23.2719 58.1408C23.573 64.0005 22.3972 70.7614 19.1392 75.5622C17.8116 77.5184 16.3625 79.4803 15.8114 81.822C15.2602 84.1637 15.8993 87.0318 17.9042 88.1558C18.6876 88.5951 19.6203 88.7434 20.3007 89.347C21.0155 89.9809 21.0621 91.0596 20.408 91.7255C20.9232 92.6986 21.4782 92.7315 22.0743 92.5168C22.5402 92.3492 23.031 92.0304 23.5478 91.89C24.098 91.7404 24.707 91.8007 25.32 91.8885C26.3075 92.0299 27.3057 92.2428 28.0865 91.7667C29.0755 91.1634 29.1473 89.7157 29.5247 88.5701C29.9021 87.4245 31.4397 86.4473 32.0621 87.4641C32.2098 87.4224 32.3526 87.3694 32.4908 87.3068C32.8796 87.1307 33.2297 86.8765 33.5366 86.566C34.0984 85.9969 34.5152 85.2393 34.7629 84.4274C34.867 84.0857 34.9414 83.7345 34.9835 83.3838C35.1575 81.9348 34.8975 80.4818 34.5548 79.0573C34.4715 78.7112 34.3835 78.3664 34.2956 78.0242C33.2983 74.1437 32.4016 70.2137 31.2993 66.3659C31.2773 66.2894 31.2579 66.2121 31.2369 66.1351C30.3779 63.0145 30.1798 59.7373 30.0519 56.518C30.0336 56.0548 30.0164 55.5928 29.9993 55.1327C29.9848 54.7526 30.0012 54.3743 30.0418 53.9989C30.202 52.5239 30.7582 51.0977 31.5001 49.8297C32.4306 48.2392 33.6427 46.8618 34.8366 45.4854L34.8914 45.4221C35.3513 44.8899 35.8133 44.3197 35.9824 43.6263C36.7131 44.2487 37.2641 45.205 37.4909 46.5378C37.5828 47.0763 37.6543 47.6232 37.6939 48.1709C38.2241 47.2537 38.4664 46.1449 38.3376 45.075Z" fill="#1A3151"/>
<path d="M142.365 48.5127L139.566 48.6937L139.441 47.4219L141.333 46.8459L141.012 46.2735L143.425 46.4298L143.722 47.7327L142.365 48.5127Z" fill="#EAD1C5"/>
<path d="M158.264 30.9185L154.598 41.9318L142.625 46.085L143.338 48.6389L158.494 47.0744L166.969 32.7355L162.573 26.7973L158.264 30.9185Z" fill="#437785"/>
<path d="M188.262 76.6808L185.439 77.013L185.319 78.0522L183.546 79.3431L184.298 80.5557L187.958 79.3096L188.262 76.6808Z" fill="#B77E6C"/>
<path d="M217.641 60.659L207.42 72.1236L202.793 73.9861L187.737 79.7358L188.023 76.0608L203.15 67.5046L211.847 50.6262L215.839 52.9656L217.641 60.659Z" fill="#D3E6DF"/>
</svg>
