<svg width="417" height="329" viewBox="0 0 417 329" fill="none" xmlns="http://www.w3.org/2000/svg">
<path opacity="0.110001" d="M417 309.061C417 319.841 323.651 328.58 208.501 328.58C93.3492 328.58 0 319.841 0 309.061C0 298.282 93.3492 289.541 208.501 289.541C323.651 289.541 417 298.282 417 309.061Z" fill="black"/>
<g opacity="0.690002">
<g opacity="0.690002">
<path opacity="0.690002" d="M392.971 56.4582C392.971 56.4582 223.598 153.848 252.038 221.926C280.477 290.006 373.112 240.902 409.106 300.163L392.971 56.4582Z" fill="#E2FAF2"/>
</g>
</g>
<path d="M219.109 81.5383C219.109 81.5383 212.746 58.7796 214.754 44.5532C216.765 30.3307 229.158 16.1063 235.523 15.7488C241.889 15.3933 251.935 16.1063 256.625 27.1291C261.315 38.1539 263.324 51.3118 262.654 59.8461C261.984 68.3804 258.301 82.6048 257.629 85.0954C256.959 87.5839 239.206 89.3615 239.206 89.3615L226.814 88.6505L219.109 81.5383Z" fill="#00414B"/>
<path d="M234.518 62.6908C234.518 62.6908 234.282 65.8197 233.181 68.9584C232.426 71.1131 231.264 73.2698 229.494 74.4267L233.849 82.2499L243.896 83.3164L248.586 80.4723L250.93 74.0711C250.93 74.0711 248.27 72.0756 246.479 68.4281C245.65 66.7409 245.008 64.6982 244.901 62.3353L234.518 62.6908Z" fill="#FFB681"/>
<g opacity="0.169998">
<g opacity="0.169998">
<path opacity="0.169998" d="M246.479 68.4288C245.65 66.7416 245.008 64.6989 244.9 62.3341L234.518 62.6916C234.518 62.6916 234.281 65.8204 233.182 68.9591C233.182 68.9591 238.719 70.5913 245.504 68.9552L246.479 68.4288Z" fill="#131313"/>
</g>
</g>
<path d="M224.469 45.6215C224.469 45.6215 225.975 54.8687 229.995 60.0247C234.016 65.1806 236.863 65.0019 239.04 65.0019C241.218 65.0019 244.065 65.3574 247.917 60.7357C251.769 56.1121 253.275 47.2203 253.443 45.977L254.448 44.5549C254.448 44.5549 258.131 43.6652 258.3 42.2431C258.468 40.8211 257.63 37.6195 256.457 37.6195C255.284 37.6195 244.232 40.4655 239.877 26.9521C239.877 26.9521 236.025 36.0187 229.157 38.1537C227.427 38.6919 225.474 38.686 225.474 38.686C225.474 38.686 222.795 36.5529 221.287 37.264C219.779 37.975 219.11 41.7089 219.948 42.4218C220.784 43.1309 223.968 44.3762 223.968 44.3762L224.469 45.6215Z" fill="#FFB681"/>
<path d="M213.75 153.017C213.75 153.017 211.093 179.398 209.73 195.693C208.392 211.695 209.06 221.402 209.06 225.566C209.06 231.254 204.037 261.125 204.037 261.125L214.42 268.594L221.454 264.682C221.454 264.682 226.144 239.79 226.144 233.031C226.144 226.275 235.524 189.645 236.863 185.381C238.203 181.113 241.551 181.466 242.223 182.533C242.892 183.601 247.246 219.873 249.255 224.853C251.266 229.83 251.936 231.965 251.936 235.522C251.936 239.077 254.616 259.703 257.965 265.75L268.349 266.817L273.374 259.703C273.374 259.703 270.694 225.566 271.028 218.096C271.365 210.628 267.345 162.974 263.325 151.951L251.601 150.529H222.795L213.75 153.017Z" fill="#00414B"/>
<path d="M256.291 261.482C256.291 261.482 264.999 265.75 273.708 256.858L273.373 254.191C273.373 254.191 275.049 254.369 275.382 258.638C275.719 262.904 273.708 278.55 274.377 283.531C275.049 288.508 278.398 298.822 281.413 302.022C284.427 305.223 284.679 306.023 284.175 307.089C283.674 308.156 281.413 310.69 279.53 310.291C277.645 309.89 271.741 305.489 269.856 303.623C267.971 301.755 267.721 300.688 267.345 299.889C266.968 299.087 266.089 299.221 266.089 299.221L265.837 302.955C265.837 302.955 262.193 305.355 257.923 302.821C257.923 302.821 257.296 297.088 257.17 295.487C257.044 293.886 255.914 287.086 256.543 284.152C257.17 281.218 253.779 266.549 254.28 264.283C254.783 262.014 256.291 261.482 256.291 261.482Z" fill="white"/>
<path d="M222.023 261.482C222.023 261.482 213.313 265.75 204.605 256.858L204.939 254.191C204.939 254.191 203.263 254.369 202.93 258.638C202.595 262.904 204.605 278.55 203.935 283.531C203.263 288.508 199.915 298.822 196.901 302.022C193.885 305.223 193.634 306.023 194.137 307.089C194.638 308.156 196.901 310.69 198.784 310.291C200.668 309.89 206.571 305.489 208.456 303.623C210.342 301.755 210.591 300.688 210.967 299.889C211.346 299.087 212.225 299.221 212.225 299.221L212.477 302.955C212.477 302.955 216.119 305.355 220.389 302.821C220.389 302.821 221.017 297.088 221.142 295.487C221.268 293.886 222.399 287.086 221.771 284.152C221.142 281.218 224.534 266.549 224.032 264.283C223.529 262.014 222.023 261.482 222.023 261.482Z" fill="white"/>
<path d="M266.842 102.52C266.842 102.52 276.389 114.256 281.414 119.056C281.414 119.056 282.919 119.858 281.414 122.258C280.746 123.32 277.264 129.309 273.529 136.182C268.837 144.816 263.743 154.847 263.325 158.263C262.571 164.397 262.822 168.932 264.831 171.332C266.842 173.733 268.6 174.534 271.114 173.733C273.625 172.933 274.881 173.2 275.382 171.598C275.885 169.999 276.892 168.4 275.634 167.599L274.378 166.797C274.378 166.797 271.867 165.463 272.872 162.798C273.876 160.131 275.634 160.131 275.131 157.463C274.629 154.796 272.872 152.663 272.872 152.663C272.872 152.663 293.974 130.26 294.225 123.324C294.314 120.902 292.288 116.369 289.57 111.471C284.509 102.335 277.044 91.9311 276.389 91.5854L266.842 102.52Z" fill="#FFB681"/>
<g opacity="0.169998">
<g opacity="0.169998">
<path opacity="0.169998" d="M273.529 136.181C273.671 135.922 273.81 135.663 273.952 135.405C277.523 128.863 280.77 123.28 281.414 122.257C282.92 119.857 281.414 119.056 281.414 119.056C276.389 114.255 266.843 102.519 266.843 102.519L276.389 91.5849C277.042 91.9325 284.509 102.337 289.571 111.47C289.571 111.47 290.522 121.004 284.664 127.225C278.805 133.443 273.529 136.181 273.529 136.181Z" fill="#131313"/>
</g>
</g>
<path d="M211.934 102.52C211.934 102.52 202.388 114.256 197.363 119.056C197.363 119.056 195.855 119.858 197.363 122.258C198.076 123.391 201.979 130.114 205.983 137.543C210.456 145.845 215.054 155.026 215.45 158.263C216.204 164.397 215.953 168.932 213.944 171.332C211.934 173.733 210.175 174.534 207.663 173.733C205.15 172.933 203.894 173.2 203.393 171.598C202.889 169.999 201.885 168.4 203.141 167.599L204.397 166.797C204.397 166.797 206.91 165.463 205.903 162.798C204.899 160.131 203.141 160.131 203.644 157.463C204.146 154.796 205.903 152.663 205.903 152.663C205.903 152.663 184.801 130.26 184.55 123.324C184.446 120.439 187.341 114.554 190.832 108.625C195.73 100.304 201.8 91.8957 202.388 91.5854L211.934 102.52Z" fill="#FFB681"/>
<g opacity="0.169998">
<g opacity="0.169998">
<path opacity="0.169998" d="M205.983 137.543C201.98 130.114 198.076 123.391 197.364 122.258C195.854 119.858 197.364 119.056 197.364 119.056C202.389 114.256 211.935 102.52 211.935 102.52L202.389 91.5854C201.8 91.8957 195.73 100.304 190.833 108.624C190.833 108.624 189.076 121.659 191.235 124.933C193.392 128.207 205.983 137.543 205.983 137.543Z" fill="#131313"/>
</g>
</g>
<path d="M231.002 72.9154C231.002 72.9154 222.814 72.9154 215.648 75.8499C208.483 78.7824 198.759 94.5192 198.759 94.5192C198.759 94.5192 208.74 104.387 208.996 106.255C208.996 106.255 209.765 107.055 210.786 106.52C211.811 105.988 214.37 100.92 214.37 100.92C214.37 100.92 214.624 108.388 216.929 111.056C219.232 113.723 211.044 152.395 211.044 153.197C211.044 153.996 210.531 155.862 212.835 156.663C215.138 157.463 254.798 159.331 265.547 155.595C265.547 155.595 268.105 154.795 268.105 153.462C268.105 152.13 261.963 117.457 261.708 115.322C261.453 113.189 261.195 111.588 261.195 111.588C261.195 111.588 263.754 105.721 264.011 99.8519L268.361 105.454C268.361 105.454 278.597 100.92 281.411 91.8519C281.411 91.8519 280.899 90.5182 280.131 89.4517C279.365 88.3832 270.152 76.9164 265.802 75.0485C261.453 73.1825 250.193 72.9154 250.193 72.9154C250.193 72.9154 250.704 79.5838 240.982 79.8489C231.74 80.1023 231.002 72.9154 231.002 72.9154Z" fill="#4A5BBF"/>
<path d="M237.646 43.5604C237.646 43.5604 236.737 51.8157 237.041 52.0298C237.311 52.2223 238.859 53.1435 241.017 52.4403C241.481 52.2891 241.76 51.7843 241.714 51.2697C241.555 49.4155 241.348 44.8096 240.878 43.5604C240.878 43.5604 239.564 42.596 237.646 43.5604Z" fill="#F39763"/>
<path d="M231.754 37.7129C229.079 37.7129 226.902 40.0247 226.902 42.8648C226.902 45.705 229.079 48.0168 231.754 48.0168C234.429 48.0168 236.607 45.705 236.607 42.8648C236.607 40.0247 234.429 37.7129 231.754 37.7129ZM231.754 49.981C228.058 49.981 225.052 46.7892 225.052 42.8648C225.052 38.9405 228.058 35.7487 231.754 35.7487C235.451 35.7487 238.457 38.9405 238.457 42.8648C238.457 46.7892 235.451 49.981 231.754 49.981Z" fill="white"/>
<path d="M246.661 37.8905C243.986 37.8905 241.808 40.2023 241.808 43.0444C241.808 45.8846 243.986 48.1964 246.661 48.1964C249.336 48.1964 251.514 45.8846 251.514 43.0444C251.514 40.2023 249.336 37.8905 246.661 37.8905ZM246.661 50.1606C242.965 50.1606 239.958 46.9669 239.958 43.0444C239.958 39.1181 242.965 35.9263 246.661 35.9263C250.358 35.9263 253.364 39.1181 253.364 43.0444C253.364 46.9669 250.358 50.1606 246.661 50.1606Z" fill="white"/>
<path d="M30.7483 41.8677C30.7483 41.8677 29.8325 55.446 29.4754 58.9029C29.1184 62.3598 27.4256 68.4389 30.382 70.409C33.3365 72.3771 46.8643 73.9091 50.3961 73.4967C53.926 73.0842 70.2326 74.1782 69.4555 66.679C68.6785 59.1799 64.7101 40.8994 64.5251 38.7584C64.3382 36.6175 57.9814 30.7937 57.9814 30.7937L45.4823 28.4976L37.3494 31.4203L30.7483 41.8677Z" fill="#EAA61E"/>
<path d="M42.4991 79.8495C42.4991 79.8495 44.0254 78.4785 44.7507 74.8801C45.0855 73.2184 45.2483 71.0794 45.0115 68.3807L48.5285 69.4472L53.8031 69.7143C53.8031 69.7143 53.8974 72.7745 54.5912 75.7129C55.0389 77.6025 55.7364 79.4429 56.8187 80.3818L56.5671 87.0521L46.7709 91.0511L41.2429 83.5834L42.4991 79.8495Z" fill="#FFB681"/>
<g opacity="0.169998">
<g opacity="0.169998">
<path opacity="0.169998" d="M54.5914 75.712C53.8976 72.7736 53.8033 69.7135 53.8033 69.7135L48.5287 69.4483L45.0117 68.3818C45.2485 71.0786 45.0857 73.2175 44.7509 74.8812C44.7509 74.8812 48.7785 77.2322 53.7108 75.712H54.5914Z" fill="#131313"/>
</g>
</g>
<path d="M35.1539 45.7548L34.9745 51.6198C34.9745 51.6198 33.7849 49.4435 32.7636 49.9424C31.7442 50.4413 31.1837 52.2895 31.4112 53.0988C31.6388 53.906 35.5757 56.7109 35.5757 56.7109C35.5757 56.7109 40.2712 67.5452 41.9881 68.9398C43.7068 70.3323 45.9084 72.2749 49.1645 72.654C52.4207 73.0331 55.7582 70.7468 56.8183 68.9142C57.8802 67.0817 62.1909 57.6242 62.5073 55.499C62.5073 55.499 64.572 53.7037 65.0974 52.92C65.6246 52.1383 67.188 50.3234 65.6968 49.7381C64.2075 49.1528 62.4018 50.6927 62.4018 50.6927C62.4018 50.6927 62.0781 44.812 61.8505 44.0027C61.6248 43.1955 58.3039 36.6764 58.3039 36.6764L52.367 33.5377L42.8262 33.2097L35.1539 45.7548Z" fill="#FFB681"/>
<path d="M49.856 25.1781C49.856 25.1781 47.1511 23.2178 43.3696 23.6224C39.5862 24.0251 33.7381 26.225 32.0934 30.7052C30.4487 35.1855 29.9214 44.2403 30.3987 45.0573C30.8779 45.8744 34.0859 47.8524 36.0932 47.9211C38.1006 47.9898 40.354 48.3355 41.8784 47.8524C43.3992 47.3711 49.3453 41.9716 49.3453 41.9716C49.3453 41.9716 45.4176 47.1747 46.9143 47.4929C48.4129 47.8111 50.7144 46.556 53.4839 46.3832C56.2535 46.2123 58.5143 46.2908 59.7761 46.0669C61.0415 45.843 62.6196 46.7544 63.5835 44.8629C64.1182 43.814 65.6833 41.9991 65.8036 38.0001C65.8684 35.869 61.8518 27.4584 60.135 26.0659C58.4181 24.6713 52.2388 21.2576 49.856 25.1781Z" fill="#EAA61E"/>
<path d="M13.9847 106.898C13.9847 106.898 12.6415 109.263 10.9839 112.18C8.80447 116.014 6.07747 120.798 5.13763 122.413C3.48181 125.255 3.80558 128.747 5.7167 130.725C7.62783 132.707 22.3803 154.128 22.3803 154.128C22.3803 154.128 19.5978 159.31 20.2546 161.215C20.9113 163.124 23.2424 166.732 25.7789 166.345C28.3135 165.956 31.5974 160.802 31.9452 158.954C32.2911 157.106 28.6779 153.957 28.5096 152.345C28.4004 151.314 24.5504 142.84 21.3702 136.15C19.5793 132.391 18.003 129.193 17.4203 128.197C15.8014 125.434 16.2492 126.528 16.2492 126.528L25.4329 114.238L20.5857 110.255L15.2945 105.904L13.9847 106.898Z" fill="#FFB681"/>
<g opacity="0.169998">
<g opacity="0.169998">
<path opacity="0.169998" d="M16.2485 126.527L25.4323 114.237L20.587 110.254L15.2939 105.903L13.984 106.897C13.984 106.897 12.6427 109.262 10.9832 112.179C10.9832 112.179 15.8637 115.685 16.095 118.386C16.3262 121.086 16.2485 126.527 16.2485 126.527Z" fill="#131313"/>
</g>
</g>
<path d="M88.3771 106.898C88.3771 106.898 95.5702 119.571 97.2241 122.413C98.8818 125.255 98.5562 128.747 96.6451 130.725C94.7358 132.707 79.9833 154.128 79.9833 154.128C79.9833 154.128 82.7658 159.31 82.1072 161.215C81.4522 163.124 79.1193 166.732 76.5847 166.345C74.0482 165.956 70.7644 160.802 70.4184 158.954C70.0706 157.106 73.6856 153.957 73.8521 152.345C73.9613 151.312 77.8168 142.83 80.999 136.138C82.7861 132.383 84.3606 129.191 84.9433 128.197C86.5622 125.434 86.1144 126.528 86.1144 126.528L76.9307 114.238L83.0822 109.18L87.0691 105.904L88.3771 106.898Z" fill="#FFB681"/>
<g opacity="0.169998">
<g opacity="0.169998">
<path opacity="0.169998" d="M83.0817 109.181L76.9302 114.238L86.1158 126.528C86.1158 126.528 86.5617 125.432 84.9428 128.198C84.3601 129.191 78.7173 141.147 76.9302 144.903C76.9302 144.903 92.0305 131.36 92.2617 128.453C92.493 125.544 83.0817 109.181 83.0817 109.181Z" fill="#131313"/>
</g>
</g>
<path d="M41.9388 77.8402C41.9388 77.8402 32.7717 79.9811 28.6349 82.1456C24.4981 84.3101 13.5845 101 12.4504 103.378C11.9676 104.388 11.5069 105.358 11.1517 106.11C10.7724 106.908 11.0555 107.872 11.7937 108.304C14.5503 109.923 18.6556 112.429 19.8914 113.604C20.4687 114.15 21.9302 115.326 22.9996 116.175C23.6656 116.703 24.6091 116.509 25.0439 115.758C26.9069 112.555 31.4007 104.896 32.0168 104.512C32.0168 104.512 31.8152 113.315 34.7346 120.16C37.6558 127.007 37.3413 147.823 37.3413 147.823L50.919 152.883L62.2563 147.662C62.2563 147.662 64.5319 122.953 65.1572 120.584C65.7807 118.217 68.3671 111.956 68.6668 106.097L80.1816 120.123L92.2608 107.195C92.2608 107.195 79.1289 88.5389 75.7674 85.4061C72.4058 82.2733 64.5152 79.1463 61.0186 78.6769C57.5182 78.2075 56.2509 78.3999 56.2509 78.3999C56.2509 78.3999 55.3536 86.0955 49.5833 85.7616C43.8147 85.4277 41.9388 77.8402 41.9388 77.8402Z" fill="#1FCBC4"/>
<path d="M33.0499 233.143C33.0499 233.143 32.7225 236.83 32.4487 242.137C32.0213 250.396 31.7179 262.576 32.963 270.881C35.0092 284.518 36.4004 290.642 34.7798 296.611C33.1609 302.58 34.6503 306.575 34.6503 306.575L39.4531 311.456L42.8479 310.567L46.524 303.639C46.524 303.639 43.5288 296.004 43.4252 291.013C43.3234 286.024 46.3964 270.519 46.7405 255.937C47.0865 241.359 46.8978 231.024 46.8978 231.024L33.0499 233.143Z" fill="#FFB681"/>
<g opacity="0.169998">
<g opacity="0.169998">
<path opacity="0.169998" d="M46.7411 255.938C47.0871 241.358 46.8984 231.023 46.8984 231.023L33.0506 233.144C33.0506 233.144 32.7232 236.829 32.4475 242.138C32.4475 242.138 43.3833 241.637 44.3083 245.075C45.2333 248.512 46.7411 255.938 46.7411 255.938Z" fill="#131313"/>
</g>
</g>
<path d="M34.3706 298.193C34.3706 298.193 31.8674 303.227 31.873 305.004C31.8822 308.387 34.3836 312.256 36.3095 314.138C38.2336 316.019 41.103 315.638 42.6497 314.829C44.1964 314.02 47.5469 306.898 47.8059 304.951C48.063 303.007 47.2175 299.581 44.6163 297.841C44.6163 297.841 46.3351 307.725 40.4463 308.125C34.5593 308.528 34.3706 298.193 34.3706 298.193Z" fill="#004755"/>
<path d="M66.7723 233.143C66.7723 233.143 67.0886 236.714 67.3587 241.886C67.7953 250.147 68.1173 262.492 66.8574 270.881C64.8112 284.518 63.4199 290.642 65.0406 296.611C66.6612 302.58 65.1719 306.575 65.1719 306.575L60.3691 311.456L56.9724 310.567L53.2963 303.639C53.2963 303.639 56.2934 296.004 56.397 291.013C56.4969 286.024 53.4258 270.519 53.0817 255.937C52.7339 241.359 52.9226 231.024 52.9226 231.024L66.7723 233.143Z" fill="#FFB681"/>
<g opacity="0.169998">
<g opacity="0.169998">
<path opacity="0.169998" d="M53.081 255.938C52.735 241.358 52.9218 231.023 52.9218 231.023L66.7715 233.144C66.7715 233.144 67.0879 236.715 67.3598 241.887C67.3598 241.887 62.2 244.093 59.9614 244.338C57.7209 244.584 54.9458 247.53 54.4833 249.985C54.0208 252.44 53.081 255.938 53.081 255.938Z" fill="#131313"/>
</g>
</g>
<path d="M65.4496 298.193C65.4496 298.193 67.9546 303.227 67.9491 305.004C67.9398 308.387 65.4367 312.256 63.5126 314.138C61.5885 316.019 58.7191 315.638 57.1724 314.829C55.6239 314.02 52.2752 306.898 52.0162 304.951C51.7572 303.007 52.6046 299.581 55.2058 297.841C55.2058 297.841 53.487 307.725 59.3758 308.125C65.2609 308.528 65.4496 298.193 65.4496 298.193Z" fill="#004755"/>
<path d="M37.2234 144.928C37.2234 144.928 22.9038 155.063 22.1509 175.865C21.396 196.67 32.4502 238.011 32.4502 238.011C32.4502 238.011 53.8037 242.278 67.8717 238.278C67.8717 238.278 77.1683 195.338 76.9167 179.334C76.6651 163.332 69.6311 151.596 62.8487 145.46C62.8487 145.46 49.7854 149.196 37.2234 144.928Z" fill="#00414B"/>
<path d="M48.1107 52.5555C48.1107 52.5555 47.3559 59.4006 47.6075 59.5793C47.8332 59.7384 49.1172 60.5044 50.9062 59.9211C51.291 59.7954 51.5204 59.377 51.4834 58.9508C51.352 57.4128 51.18 53.5906 50.7896 52.5555C50.7896 52.5555 49.6999 51.7561 48.1107 52.5555Z" fill="#F39763"/>
<path d="M396.893 85.5454C396.893 85.5454 401.718 92.3394 406.415 99.1983C410.384 104.989 414.259 110.824 415.062 112.655C416.822 116.656 415.314 120.122 412.803 123.057C410.289 125.991 381.82 151.69 381.82 151.69C381.82 151.69 385.337 157.557 385.589 159.425C385.839 161.291 381.317 165.294 379.811 166.094C378.301 166.893 376.041 165.827 374.535 164.76C373.027 163.693 370.766 158.094 371.018 155.157C371.267 152.223 376.041 149.023 377.045 146.356C377.794 144.372 386.21 130.167 391.176 122.191C392.885 119.447 394.186 117.441 394.625 116.923C394.625 116.923 396.343 115.434 395.087 113.833C393.833 112.234 382.405 98.937 382.405 98.937L388.351 86.8791L396.893 85.5454Z" fill="#FFB681"/>
<g opacity="0.169998">
<g opacity="0.169998">
<path opacity="0.169998" d="M391.177 122.191C392.886 119.447 394.187 117.442 394.625 116.923C394.625 116.923 396.344 115.434 395.088 113.834C393.833 112.235 382.406 98.9374 382.406 98.9374L388.352 86.8793L396.893 85.5457C396.893 85.5457 401.718 92.3397 406.416 99.1986C406.416 99.1986 403.069 106.274 399.676 107.91C399.676 107.91 403.376 116.094 398.751 119.041C394.126 121.987 391.177 122.191 391.177 122.191Z" fill="#131313"/>
</g>
</g>
<path d="M295.466 85.5454C295.466 85.5454 290.741 92.198 286.09 98.9822C282.073 104.843 278.108 110.801 277.294 112.655C275.537 116.656 277.043 120.122 279.555 123.057C282.068 125.991 310.538 151.69 310.538 151.69C310.538 151.69 307.021 157.557 306.77 159.425C306.52 161.291 311.041 165.294 312.547 166.094C314.055 166.893 316.318 165.827 317.824 164.76C319.33 163.693 321.592 158.094 321.341 155.157C321.091 152.223 316.318 149.023 315.311 146.356C314.583 144.421 306.561 130.863 301.556 122.796C299.665 119.745 298.202 117.479 297.732 116.923C297.732 116.923 296.013 115.434 297.271 113.833C298.526 112.234 309.954 98.937 309.954 98.937L304.006 86.8791L295.466 85.5454Z" fill="#FFB681"/>
<g opacity="0.169998">
<g opacity="0.169998">
<path opacity="0.169998" d="M301.556 122.795C299.666 119.745 298.204 117.478 297.732 116.923C297.732 116.923 296.013 115.434 297.272 113.835C298.526 112.234 309.954 98.9367 309.954 98.9367L304.006 86.8787L295.466 85.545C295.466 85.545 290.741 92.1976 286.09 98.9818C286.09 98.9818 290.521 106.927 292.989 108.237C292.989 108.237 290.83 114.129 293.605 117.076C296.38 120.022 301.556 122.795 301.556 122.795Z" fill="#131313"/>
</g>
</g>
<path d="M360.13 290.286C360.13 290.286 358.204 301.4 359.292 304.511C359.292 304.511 362.476 308.421 365.488 308.421C368.503 308.421 366.492 305.577 368.838 307.001C371.184 308.421 372.022 311.444 377.883 313.047C382.436 314.29 385.922 314.114 388.935 312.69C391.951 311.27 391.616 310.824 391.783 309.225C391.901 308.105 391.281 306.644 391.281 306.644C391.281 306.644 393.291 303.089 389.94 300.243C386.591 297.399 377.883 291.353 375.874 287.796C375.874 287.796 361.469 288.509 360.13 290.286Z" fill="#006172"/>
<path d="M334.431 290.286C334.431 290.286 336.357 301.4 335.267 304.511C335.267 304.511 332.085 308.421 329.073 308.421C326.058 308.421 328.067 305.577 325.723 307.001C323.377 308.421 322.539 311.444 316.678 313.047C312.125 314.29 308.639 314.114 305.625 312.69C302.61 311.27 302.945 310.824 302.778 309.225C302.66 308.105 303.28 306.644 303.28 306.644C303.28 306.644 301.27 303.089 304.621 300.243C307.97 297.399 316.678 291.353 318.687 287.796C318.687 287.796 333.09 288.509 334.431 290.286Z" fill="#006172"/>
<path d="M371.854 149.817C371.854 149.817 378.888 185.022 379.892 192.135C380.899 199.249 381.903 206.006 380.562 214.895C379.222 223.787 377.548 287.797 377.548 287.797C377.548 287.797 366.494 298.822 357.114 289.93C357.114 289.93 357.786 284.24 357.114 280.329C356.446 276.419 354.1 246.546 354.1 235.876C354.1 225.207 346.731 188.937 346.731 188.937C346.731 188.937 341.372 219.872 339.028 225.565C336.682 231.253 338.023 235.521 338.023 238.367C338.023 241.211 340.032 279.263 337.353 290.641C337.353 290.641 321.942 298.464 316.25 288.153C316.25 288.153 313.234 221.652 313.234 218.452C313.234 215.251 313.234 203.159 314.238 195.692C315.245 188.224 319.935 150.883 319.935 150.883L371.854 149.817Z" fill="#00414B"/>
<path d="M337.521 63.224L338.057 59.5176L338.86 53.9786L356.279 53.6231L357.246 59.109L358.288 65.0015L350.919 74.2488L343.55 73.8933L337.521 63.224Z" fill="#FFB681"/>
<g opacity="0.169998">
<g opacity="0.169998">
<path opacity="0.169998" d="M357.246 59.1087L356.279 53.6228L338.86 53.9783L338.057 59.5173C338.057 59.5173 345.099 64.0447 355.892 60.4424L357.246 59.1087Z" fill="#131313"/>
</g>
</g>
<path d="M327.806 29.796C327.806 29.796 327.638 23.5735 329.147 19.8396C330.653 16.1058 333.164 12.0164 336.348 10.5924C339.53 9.1703 344.22 8.45927 347.57 8.28053C350.919 8.10376 356.11 8.45927 358.789 10.5924C361.47 12.7274 365.488 20.3719 365.488 22.6837C365.488 24.9956 364.151 30.3302 364.151 30.3302L362.475 34.2409L333.835 34.9519L327.806 29.796Z" fill="#006172"/>
<path d="M328.476 32.9973C328.476 32.9973 329.649 38.8643 329.313 40.6438C328.978 42.4214 328.811 52.7333 340.87 57.1801C352.929 61.6251 359.125 53.9786 360.298 52.3778C361.471 50.777 364.149 48.1096 364.149 44.3757C364.149 40.6438 363.311 38.5088 363.311 37.0867C363.311 35.6647 364.484 29.6189 364.484 29.6189V27.4839L361.805 26.0618L330.485 25.8851L328.476 32.9973Z" fill="#006172"/>
<path d="M330.653 29.0853C330.653 29.0853 328.811 26.418 326.633 26.418C324.456 26.418 323.285 29.975 324.123 31.3971C324.959 32.8191 327.975 33.8857 328.811 34.4199C329.649 34.9522 330.319 35.6652 330.319 35.6652C330.319 35.6652 331.323 32.1081 330.653 29.0853Z" fill="#FFB681"/>
<path d="M362.101 28.9069C362.101 28.9069 363.944 26.2396 366.121 26.2396C368.299 26.2396 369.47 29.7967 368.632 31.2187C367.796 32.6408 364.78 33.7073 363.944 34.2415C363.106 34.7758 362.436 35.4868 362.436 35.4868C362.436 35.4868 361.431 31.9297 362.101 28.9069Z" fill="#FFB681"/>
<path d="M335.342 20.1948C335.342 20.1948 333.333 23.7519 332.998 26.596C332.663 29.4421 333.333 33.3527 332.998 34.7748C332.663 36.1969 336.683 41.5315 340.367 42.7768C344.052 44.0201 352.425 43.4879 354.102 42.5981C355.776 41.7103 359.628 36.7311 359.963 34.2405C360.298 31.7519 360.632 27.307 359.963 25.7062C359.291 24.1074 357.785 19.8392 356.277 18.9495C354.771 18.0617 351.421 20.9058 346.899 21.0845C342.378 21.2613 339.697 17.8829 337.688 18.4172C335.679 18.9495 335.342 20.1948 335.342 20.1948Z" fill="#FFB681"/>
<path d="M357.785 61.1793C357.785 61.1793 373.109 62.2459 378.887 66.514C384.664 70.7821 401.97 91.5845 401.97 91.5845C401.97 91.5845 404.988 101.038 386.873 109.344C386.873 109.344 375.372 92.1188 374.617 93.4525C373.862 94.7861 375.118 109.989 374.617 113.455C374.113 116.922 373.862 151.328 373.862 151.328C373.862 151.328 353.765 171.599 317.84 153.462C317.84 153.462 316.835 110.254 316.584 107.054C316.334 103.855 316.584 92.3859 316.584 92.3859L304.532 110.26C304.532 110.26 287.119 98.9894 287.587 92.6511C287.587 92.6511 308.042 71.3144 315.329 67.5805C322.613 63.8466 327.975 61.7116 337.521 61.1793C337.521 61.1793 338.735 68.5233 347.221 68.3819C355.709 68.2385 357.785 61.1793 357.785 61.1793Z" fill="#1FCBC4"/>
<path d="M345.402 26.5169C345.402 26.5169 343.592 38.6967 344.443 38.9639C345.294 39.231 348.487 39.8536 350.297 38.6967C350.297 38.6967 349.977 29.6281 349.126 26.5169C349.126 26.5169 347.636 25.0948 345.402 26.5169Z" fill="#F39763"/>
<path d="M115.855 287.887C115.855 287.887 112.089 296.686 110.579 298.287C109.073 299.888 101.033 311.624 100.531 312.957C100.028 314.289 102.039 316.691 105.806 316.958C109.574 317.225 114.098 311.624 116.357 309.488C118.619 307.355 122.64 302.822 122.64 302.822C122.64 302.822 122.891 304.423 123.644 304.423C124.397 304.423 129.17 303.354 129.17 302.021C129.17 300.689 129.674 296.421 129.674 294.555C129.674 292.685 127.161 287.887 125.402 287.085L115.855 287.887Z" fill="#00414B"/>
<path d="M170.55 287.887C170.55 287.887 174.318 296.686 175.826 298.287C177.332 299.888 185.372 311.624 185.874 312.957C186.377 314.289 184.368 316.691 180.599 316.958C176.831 317.225 172.307 311.624 170.048 309.488C167.786 307.355 163.767 302.822 163.767 302.822C163.767 302.822 163.514 304.423 162.761 304.423C162.008 304.423 157.235 303.354 157.235 302.021C157.235 300.689 156.732 296.421 156.732 294.555C156.732 292.685 159.246 287.887 161.003 287.085L170.55 287.887Z" fill="#00414B"/>
<path d="M124.648 151.329C124.648 151.329 123.205 154.862 121.635 158.897C120.062 162.931 118.367 167.464 117.866 169.466C116.862 173.467 114.85 223.076 114.349 228.675C113.846 234.277 115.603 244.145 115.102 249.211C114.599 254.28 115.102 278.551 115.855 287.887C115.855 287.887 120.88 291.354 126.911 288.419C126.911 288.419 129.925 267.617 131.179 260.147C132.437 252.679 134.948 236.677 135.199 229.742C135.451 222.808 141.73 192.136 141.73 192.136C141.73 192.136 149.269 225.741 149.771 229.477C150.274 233.211 150.775 248.146 153.791 262.549C156.805 276.953 159.569 288.419 159.569 288.419C159.569 288.419 164.196 291.619 170.551 287.887C170.551 287.887 168.614 249.478 168.614 246.812C168.614 244.145 169.618 232.942 169.618 227.607C169.618 222.276 165.095 173.734 164.593 168.666C164.09 163.599 157.306 150.262 157.306 150.262L124.648 151.329Z" fill="#006172"/>
<g opacity="0.229996">
<g opacity="0.229996">
<path opacity="0.229996" d="M153.791 262.548C150.775 248.145 150.274 233.21 149.771 229.476C149.269 225.742 141.73 192.135 141.73 192.135C141.73 192.135 144.058 192.043 145.29 196.625C146.524 201.209 154.546 225.105 154.544 229.362C154.54 233.618 153.791 262.548 153.791 262.548Z" fill="#131313"/>
</g>
</g>
<g opacity="0.229996">
<g opacity="0.229996">
<path opacity="0.229996" d="M164.593 168.665C164.092 163.598 157.308 150.261 157.308 150.261L124.648 151.328C124.648 151.328 123.205 154.863 121.635 158.896C121.635 158.896 132.704 159.758 142.233 161.005C151.765 162.25 164.107 168.933 164.107 168.933" fill="#131313"/>
</g>
</g>
<path d="M99.5264 89.7172C99.5264 89.7172 97.6357 91.9407 94.9919 95.1069C89.2992 101.928 80.1284 113.124 78.9259 115.856C77.1683 119.855 78.6743 123.324 81.1885 126.258C83.6991 129.191 114.599 155.862 114.599 155.862C114.599 155.862 111.082 161.729 110.83 163.597C110.581 165.463 115.102 169.466 116.61 170.266C118.118 171.065 120.379 169.998 121.886 168.932C123.392 167.865 125.653 162.266 125.402 159.329C125.152 156.395 120.379 153.195 119.374 150.528C118.682 148.691 109.245 134.973 102.879 125.956C100.007 121.886 97.7596 118.773 97.225 118.145C97.225 118.145 95.5062 116.656 96.7643 115.055C98.0205 113.454 112.34 101.72 112.34 101.72L108.068 91.0509L99.5264 89.7172Z" fill="#FFB681"/>
<g opacity="0.169998">
<g opacity="0.169998">
<path opacity="0.169998" d="M102.88 125.956C100.006 121.887 97.7586 118.774 97.224 118.145C97.224 118.145 95.5071 116.656 96.7633 115.055C98.0195 113.455 112.339 101.721 112.339 101.721L108.069 91.0513L99.5273 89.7176C99.5273 89.7176 97.6347 91.941 94.9909 95.1073C94.9909 95.1073 97.4978 101.691 98.1139 103.327C98.7318 104.963 93.7976 112.82 94.1066 115.766C94.4137 118.713 102.88 125.956 102.88 125.956Z" fill="#131313"/>
</g>
</g>
<path d="M183.618 89.7172C183.618 89.7172 185.51 91.9407 188.152 95.1069C193.845 101.928 203.016 113.124 204.218 115.856C205.976 119.855 204.47 123.324 201.956 126.258C199.445 129.191 168.545 155.862 168.545 155.862C168.545 155.862 172.062 161.729 172.314 163.597C172.564 165.463 168.042 169.466 166.536 170.266C165.026 171.065 162.766 169.998 161.26 168.932C159.752 167.865 157.491 162.266 157.743 159.329C157.992 156.395 162.766 153.195 163.77 150.528C164.462 148.691 173.899 134.973 180.266 125.956C183.137 121.886 185.385 118.773 185.919 118.145C185.919 118.145 187.638 116.656 186.38 115.055C185.124 113.454 170.804 101.72 170.804 101.72L175.076 91.0509L183.618 89.7172Z" fill="#FFB681"/>
<g opacity="0.169998">
<g opacity="0.169998">
<path opacity="0.169998" d="M180.264 125.956C183.138 121.887 185.385 118.774 185.92 118.145C185.92 118.145 187.637 116.656 186.381 115.055C185.125 113.455 170.805 101.721 170.805 101.721L175.075 91.0513L183.617 89.7176C183.617 89.7176 185.511 91.941 188.153 95.1073C188.153 95.1073 185.646 101.691 185.03 103.327C184.412 104.963 189.346 112.82 189.037 115.766C188.73 118.713 180.264 125.956 180.264 125.956Z" fill="#131313"/>
</g>
</g>
<path d="M135.2 56.6449C135.2 56.6449 134.942 59.819 134.382 63.0992C133.98 65.4444 133.42 67.8466 132.689 69.1802L135.451 75.0491L142.485 76.3828L151.78 70.781C151.78 70.781 150.457 66.0651 149.434 61.8048C148.79 59.1178 148.265 56.6096 148.265 55.5784C148.265 52.9111 135.2 56.6449 135.2 56.6449Z" fill="#FFB681"/>
<g opacity="0.169998">
<g opacity="0.169998">
<path opacity="0.169998" d="M149.435 61.8046C148.789 59.1177 148.264 56.6095 148.264 55.5783C148.264 52.911 135.2 56.6448 135.2 56.6448C135.2 56.6448 134.943 59.8189 134.381 63.099C134.381 63.099 143.134 64.3717 148.066 62.0796L149.435 61.8046Z" fill="#131313"/>
</g>
</g>
<path d="M133.441 65.4473C133.441 65.4473 126.156 66.2467 117.866 69.1812C109.576 72.1156 97.5167 87.5854 97.5167 88.9171C97.5167 90.2508 111.081 104.654 111.836 105.186C112.589 105.721 116.106 103.053 116.106 103.053C116.106 103.053 118.117 120.124 118.117 124.39C118.117 128.658 122.639 142.527 122.89 145.729C123.142 148.928 124.648 151.328 124.648 151.328C124.648 151.328 124.147 155.595 139.219 155.329C154.294 155.062 158.062 152.929 158.062 152.929C158.062 152.929 160.824 144.662 161.076 143.594C161.326 142.527 163.84 124.657 163.84 123.858C163.84 123.058 165.346 101.454 165.598 100.653C165.849 99.8536 172.632 104.921 172.632 104.921C172.632 104.921 183.214 101.454 186.465 89.7165C186.465 89.7165 186.951 87.5854 185.443 85.4504C183.937 83.3173 170.622 70.5149 167.104 68.6469C163.588 66.781 156.804 65.4473 150.523 65.1802C150.523 65.1802 151.528 72.1156 142.988 72.3808C134.446 72.6479 133.441 65.4473 133.441 65.4473Z" fill="#1FCBC4"/>
<g opacity="0.229996">
<g opacity="0.229996">
<path opacity="0.229996" d="M141.731 192.136C141.731 192.136 134.268 203.826 132.688 212.011C131.108 220.194 131.18 260.147 131.18 260.147C132.438 252.679 134.949 236.677 135.2 229.742C135.45 222.808 141.731 192.136 141.731 192.136Z" fill="#131313"/>
</g>
</g>
<path d="M126.155 20.6388C126.155 20.6388 124.146 18.5058 122.64 18.7709C121.131 19.04 119.874 23.3062 121.382 25.1741C122.89 27.04 127.162 28.906 127.162 28.906L126.155 20.6388Z" fill="#FFB681"/>
<path d="M155.876 20.6388C155.876 20.6388 157.885 18.5058 159.391 18.7709C160.9 19.04 162.157 23.3062 160.649 25.1741C159.141 27.04 154.871 28.906 154.871 28.906L155.876 20.6388Z" fill="#FFB681"/>
<path d="M126.658 15.0377L128.417 31.8412L135.451 39.576L146.505 40.3755L153.539 30.7746L154.544 16.9056L148.766 8.63649L137.462 8.10421L126.658 15.0377Z" fill="#FFB681"/>
<path d="M124.397 19.0391C124.397 19.0391 123.896 11.8365 125.15 9.70341C126.407 7.57033 134.447 2.76992 137.209 1.16913C139.973 -0.431664 141.479 -0.431664 145.499 1.43625C149.519 3.30221 152.785 5.70241 153.791 7.3032C154.796 8.904 155.549 13.7044 155.549 14.7709C155.549 15.8375 156.805 19.8051 156.805 19.8051L155.876 20.6379L155.578 22.606L154.01 22.3723C154.01 22.3723 153.005 21.6062 152.785 19.9053C152.567 18.2043 151.749 15.8375 150.681 15.205C149.614 14.5706 146.818 12.6045 146.097 12.2706C145.375 11.9367 142.14 12.1036 141.479 12.304C140.82 12.5043 137.083 14.8711 134.225 14.9379C131.37 15.0047 129.831 16.5387 129.108 17.2045C128.384 17.8724 127.256 21.1054 127.256 21.1054V21.9401L126.283 21.7732L126.155 20.6379C126.155 20.6379 125.087 19.2041 124.397 19.0391Z" fill="#00414B"/>
<path d="M125.57 28.3736C125.57 28.3736 125.905 32.463 125.402 33.618C124.9 34.7748 124.565 38.8642 124.649 41.2644C124.732 43.6646 126.743 48.5554 126.826 50.7769C126.909 53.0003 127.579 56.3786 128.752 57.0897C129.925 57.8007 133.694 59.2247 135.283 58.7788C136.874 58.3349 138.382 58.0678 139.721 58.3349C141.062 58.6021 142.737 59.4899 144.413 59.046C146.087 58.6021 152.784 58.6905 155.047 53.0003C157.306 47.3101 156.973 38.9526 156.47 36.5524C155.968 34.1522 155.465 28.8175 155.465 28.8175L154.627 29.1731L155.548 22.2396L155.13 21.1711L153.791 21.3498C153.791 21.3498 153.539 26.0618 153.288 26.5961C153.038 27.1284 151.027 31.3965 149.687 32.1959C148.348 32.9973 145.834 35.753 143.072 36.0201C140.308 36.2853 136.707 35.753 134.615 34.0638C132.521 32.3746 130.258 30.7738 129.505 29.4402C128.752 28.1065 127.916 25.5295 127.916 25.5295L127.255 21.1062L126.155 20.6388L127.161 28.9059L125.57 28.3736Z" fill="#00414B"/>
<path d="M139.554 20.3722C139.554 20.3722 138.129 32.552 138.801 32.8191C139.471 33.0862 141.981 33.7089 143.406 32.552C143.406 32.552 143.154 23.4834 142.484 20.3722C142.484 20.3722 141.313 18.9502 139.554 20.3722Z" fill="#F39763"/>
<path d="M46.6858 136.897C43.8031 136.897 41.1085 136.067 38.6018 134.406L40.8108 128.578C42.0641 129.017 43.1295 129.236 44.0068 129.236C46.1061 129.236 47.1558 127.936 47.1558 125.335V102.446H57.2608V125.335C57.2608 128.938 56.3208 131.774 54.4408 133.842C52.5608 135.879 49.9758 136.897 46.6858 136.897Z" fill="white"/>
<path d="M142.452 133.866C139.068 133.866 136.06 133.146 133.428 131.704C130.827 130.263 128.79 128.273 127.318 125.735C125.876 123.166 125.156 120.252 125.156 116.993C125.156 113.703 125.876 110.774 127.318 108.204C128.79 105.635 130.827 103.645 133.428 102.235C136.06 100.794 139.068 100.073 142.452 100.073C145.836 100.073 148.828 100.794 151.429 102.235C154.061 103.645 156.097 105.635 157.539 108.204C159.011 110.742 159.748 113.672 159.748 116.993C159.748 120.252 159.011 123.166 157.539 125.735C156.097 128.273 154.061 130.263 151.429 131.704C148.797 133.146 145.804 133.866 142.452 133.866ZM142.452 125.312C144.426 125.312 146.039 124.545 147.293 123.009C148.577 121.474 149.22 119.453 149.22 116.946C149.22 115.286 148.922 113.813 148.327 112.528C147.763 111.212 146.964 110.194 145.93 109.473C144.896 108.721 143.721 108.345 142.405 108.345C141.12 108.345 139.961 108.721 138.927 109.473C137.893 110.194 137.094 111.212 136.53 112.528C135.966 113.813 135.684 115.286 135.684 116.946C135.684 119.453 136.31 121.474 137.564 123.009C138.817 124.545 140.446 125.312 142.452 125.312Z" fill="white"/>
<path d="M233.518 101.612H244.375V133.948H233.518V101.612Z" fill="white"/>
<path d="M331.235 99.9444H340.682L353.56 117.381V99.9444H361.973V132.28H352.573L339.601 115.454V132.28H331.235V99.9444Z" fill="white"/>
</svg>
