<svg width="1366" height="138" viewBox="0 0 1366 138" fill="none" xmlns="http://www.w3.org/2000/svg">
<path d="M-35.0972 109.275L-1.52862 106.707C32.0399 103.945 98.9813 99.1006 166.51 106.707C233.353 114.604 300.588 134.953 367.138 137.714C434.667 140.282 502.195 124.778 568.745 122.211C635.98 119.449 702.824 130.108 770.352 127.346C837.294 124.778 904.431 109.275 971.959 104.091C1038.61 99.1006 1106.04 103.945 1172.59 109.275C1240.02 114.604 1306.67 119.449 1340.92 122.211L1374.19 124.778V0.75H1340.63C1307.06 0.75 1240.12 0.75 1172.59 0.75C1105.74 0.75 1038.51 0.75 971.959 0.75C904.431 0.75 836.902 0.75 770.352 0.75C703.117 0.75 636.274 0.75 568.745 0.75C501.804 0.75 434.667 0.75 367.138 0.75C300.49 0.75 233.06 0.75 166.51 0.75C99.0791 0.75 32.4314 0.75 -1.82222 0.75H-35.0972V109.275Z" fill="#E4E8FE"/>
</svg>
